<svg width="339" height="65" viewBox="0 0 339 65" fill="none" xmlns="http://www.w3.org/2000/svg">
<rect x="1.04858" y="0.5" width="336.578" height="64" stroke="white"/>
<path opacity="0.5" d="M62.7464 39.27C61.8584 39.27 61.0844 39.141 60.4244 38.883C59.7704 38.619 59.2274 38.277 58.7954 37.857C58.3694 37.431 58.0454 36.975 57.8234 36.489L59.2454 35.607C59.3894 35.985 59.6114 36.336 59.9114 36.66C60.2174 36.984 60.6074 37.245 61.0814 37.443C61.5614 37.641 62.1374 37.74 62.8094 37.74C63.4934 37.74 64.0664 37.635 64.5284 37.425C64.9904 37.209 65.3354 36.918 65.5634 36.552C65.7974 36.18 65.9144 35.754 65.9144 35.274C65.9144 34.728 65.7794 34.308 65.5094 34.014C65.2394 33.714 64.8764 33.504 64.4204 33.384C63.9704 33.258 63.4724 33.186 62.9264 33.168C62.5004 33.15 62.1944 33.138 62.0084 33.132C61.8224 33.126 61.6964 33.123 61.6304 33.123C61.5704 33.123 61.5134 33.123 61.4594 33.123V31.593C61.5134 31.593 61.6274 31.593 61.8014 31.593C61.9754 31.593 62.1584 31.593 62.3504 31.593C62.5424 31.587 62.6954 31.581 62.8094 31.575C63.6134 31.533 64.2524 31.329 64.7264 30.963C65.2004 30.591 65.4374 30.081 65.4374 29.433C65.4374 28.761 65.1944 28.236 64.7084 27.858C64.2284 27.48 63.6014 27.291 62.8274 27.291C62.0954 27.291 61.4714 27.462 60.9554 27.804C60.4454 28.146 60.0374 28.587 59.7314 29.127L58.4984 28.074C58.9184 27.408 59.5004 26.859 60.2444 26.427C60.9944 25.989 61.8704 25.77 62.8724 25.77C63.4244 25.77 63.9554 25.845 64.4654 25.995C64.9814 26.139 65.4374 26.361 65.8334 26.661C66.2354 26.955 66.5534 27.33 66.7874 27.786C67.0214 28.236 67.1384 28.77 67.1384 29.388C67.1384 30.054 66.9974 30.645 66.7154 31.161C66.4334 31.677 66.0644 32.076 65.6084 32.358C66.2384 32.568 66.7304 32.916 67.0844 33.402C67.4384 33.888 67.6154 34.518 67.6154 35.292C67.6154 36.102 67.4084 36.804 66.9944 37.398C66.5864 37.992 66.0164 38.454 65.2844 38.784C64.5524 39.108 63.7064 39.27 62.7464 39.27ZM72.273 39.27C71.547 39.27 70.938 39.138 70.446 38.874C69.96 38.604 69.591 38.25 69.339 37.812C69.093 37.374 68.97 36.894 68.97 36.372C68.97 35.862 69.066 35.421 69.258 35.049C69.456 34.671 69.732 34.359 70.086 34.113C70.44 33.861 70.863 33.663 71.355 33.519C71.817 33.393 72.333 33.285 72.903 33.195C73.479 33.099 74.061 33.012 74.649 32.934C75.237 32.856 75.786 32.781 76.296 32.709L75.72 33.042C75.738 32.178 75.564 31.539 75.198 31.125C74.838 30.711 74.214 30.504 73.326 30.504C72.738 30.504 72.222 30.639 71.778 30.909C71.34 31.173 71.031 31.605 70.851 32.205L69.33 31.746C69.564 30.894 70.017 30.225 70.689 29.739C71.361 29.253 72.246 29.01 73.344 29.01C74.226 29.01 74.982 29.169 75.612 29.487C76.248 29.799 76.704 30.273 76.98 30.909C77.118 31.209 77.205 31.536 77.241 31.89C77.277 32.238 77.295 32.604 77.295 32.988V39H75.873V36.669L76.206 36.885C75.84 37.671 75.327 38.265 74.667 38.667C74.013 39.069 73.215 39.27 72.273 39.27ZM72.516 37.929C73.092 37.929 73.59 37.827 74.01 37.623C74.436 37.413 74.778 37.14 75.036 36.804C75.294 36.462 75.462 36.09 75.54 35.688C75.63 35.388 75.678 35.055 75.684 34.689C75.696 34.317 75.702 34.032 75.702 33.834L76.26 34.077C75.738 34.149 75.225 34.218 74.721 34.284C74.217 34.35 73.74 34.422 73.29 34.5C72.84 34.572 72.435 34.659 72.075 34.761C71.811 34.845 71.562 34.953 71.328 35.085C71.1 35.217 70.914 35.388 70.77 35.598C70.632 35.802 70.563 36.057 70.563 36.363C70.563 36.627 70.629 36.879 70.761 37.119C70.899 37.359 71.109 37.554 71.391 37.704C71.679 37.854 72.054 37.929 72.516 37.929ZM79.626 39V29.28H87.591V39H85.989V30.801H81.228V39H79.626ZM94.5756 39.27C93.6636 39.27 92.8956 39.045 92.2716 38.595C91.6476 38.139 91.1736 37.524 90.8496 36.75C90.5316 35.97 90.3726 35.097 90.3726 34.131C90.3726 33.153 90.5316 32.277 90.8496 31.503C91.1736 30.729 91.6476 30.12 92.2716 29.676C92.9016 29.232 93.6726 29.01 94.5846 29.01C95.4846 29.01 96.2586 29.235 96.9066 29.685C97.5606 30.129 98.0616 30.738 98.4096 31.512C98.7576 32.286 98.9316 33.159 98.9316 34.131C98.9316 35.103 98.7576 35.976 98.4096 36.75C98.0616 37.524 97.5606 38.139 96.9066 38.595C96.2586 39.045 95.4816 39.27 94.5756 39.27ZM90.1026 43.32V29.28H91.5336V36.435H91.7136V43.32H90.1026ZM94.3776 37.803C95.0196 37.803 95.5506 37.641 95.9706 37.317C96.3906 36.993 96.7056 36.555 96.9156 36.003C97.1256 35.445 97.2306 34.821 97.2306 34.131C97.2306 33.447 97.1256 32.829 96.9156 32.277C96.7116 31.725 96.3936 31.287 95.9616 30.963C95.5356 30.639 94.9926 30.477 94.3326 30.477C93.7026 30.477 93.1806 30.633 92.7666 30.945C92.3526 31.251 92.0436 31.68 91.8396 32.232C91.6356 32.778 91.5336 33.411 91.5336 34.131C91.5336 34.839 91.6326 35.472 91.8306 36.03C92.0346 36.582 92.3466 37.017 92.7666 37.335C93.1866 37.647 93.7236 37.803 94.3776 37.803ZM105.045 39.27C104.079 39.27 103.245 39.051 102.543 38.613C101.847 38.175 101.31 37.569 100.932 36.795C100.554 36.021 100.365 35.133 100.365 34.131C100.365 33.111 100.557 32.217 100.941 31.449C101.325 30.681 101.868 30.084 102.57 29.658C103.272 29.226 104.097 29.01 105.045 29.01C106.017 29.01 106.854 29.229 107.556 29.667C108.258 30.099 108.795 30.702 109.167 31.476C109.545 32.244 109.734 33.129 109.734 34.131C109.734 35.145 109.545 36.039 109.167 36.813C108.789 37.581 108.249 38.184 107.547 38.622C106.845 39.054 106.011 39.27 105.045 39.27ZM105.045 37.749C106.053 37.749 106.803 37.413 107.295 36.741C107.787 36.069 108.033 35.199 108.033 34.131C108.033 33.033 107.784 32.16 107.286 31.512C106.788 30.858 106.041 30.531 105.045 30.531C104.367 30.531 103.809 30.684 103.371 30.99C102.933 31.296 102.606 31.719 102.39 32.259C102.174 32.799 102.066 33.423 102.066 34.131C102.066 35.223 102.318 36.099 102.822 36.759C103.326 37.419 104.067 37.749 105.045 37.749ZM115.81 39.27C114.826 39.27 113.989 39.051 113.299 38.613C112.615 38.169 112.093 37.56 111.733 36.786C111.373 36.012 111.187 35.13 111.175 34.14C111.187 33.126 111.376 32.235 111.742 31.467C112.114 30.693 112.645 30.09 113.335 29.658C114.025 29.226 114.856 29.01 115.828 29.01C116.854 29.01 117.736 29.262 118.474 29.766C119.218 30.27 119.716 30.96 119.968 31.836L118.384 32.313C118.18 31.749 117.847 31.311 117.385 30.999C116.929 30.687 116.404 30.531 115.81 30.531C115.144 30.531 114.595 30.687 114.163 30.999C113.731 31.305 113.41 31.731 113.2 32.277C112.99 32.817 112.882 33.438 112.876 34.14C112.888 35.22 113.137 36.093 113.623 36.759C114.115 37.419 114.844 37.749 115.81 37.749C116.446 37.749 116.974 37.605 117.394 37.317C117.814 37.023 118.132 36.6 118.348 36.048L119.968 36.471C119.632 37.377 119.107 38.07 118.393 38.55C117.679 39.03 116.818 39.27 115.81 39.27ZM129.761 29.28V39H128.213V31.836L123.119 39H121.796V29.28H123.344V36.345L128.447 29.28H129.761ZM134.855 39V30.738H131.471V29.28H139.841V30.738H136.457V39H134.855ZM141.545 39L141.536 29.28H143.147V32.799H145.244C145.526 32.799 145.814 32.805 146.108 32.817C146.402 32.829 146.657 32.856 146.873 32.898C147.377 32.994 147.818 33.162 148.196 33.402C148.574 33.642 148.868 33.969 149.078 34.383C149.288 34.791 149.393 35.298 149.393 35.904C149.393 36.744 149.174 37.41 148.736 37.902C148.304 38.388 147.737 38.712 147.035 38.874C146.795 38.928 146.519 38.964 146.207 38.982C145.901 38.994 145.61 39 145.334 39H141.545ZM143.147 37.677H145.361C145.541 37.677 145.742 37.671 145.964 37.659C146.186 37.647 146.384 37.617 146.558 37.569C146.864 37.479 147.137 37.302 147.377 37.038C147.623 36.774 147.746 36.396 147.746 35.904C147.746 35.406 147.626 35.022 147.386 34.752C147.152 34.482 146.843 34.305 146.459 34.221C146.285 34.179 146.102 34.152 145.91 34.14C145.718 34.128 145.535 34.122 145.361 34.122H143.147V37.677ZM159.439 39.27C158.527 39.27 157.759 39.045 157.135 38.595C156.511 38.139 156.037 37.524 155.713 36.75C155.395 35.97 155.236 35.097 155.236 34.131C155.236 33.153 155.395 32.277 155.713 31.503C156.037 30.729 156.511 30.12 157.135 29.676C157.765 29.232 158.536 29.01 159.448 29.01C160.348 29.01 161.122 29.235 161.77 29.685C162.424 30.129 162.925 30.738 163.273 31.512C163.621 32.286 163.795 33.159 163.795 34.131C163.795 35.103 163.621 35.976 163.273 36.75C162.925 37.524 162.424 38.139 161.77 38.595C161.122 39.045 160.345 39.27 159.439 39.27ZM154.966 43.32V29.28H156.397V36.435H156.577V43.32H154.966ZM159.241 37.803C159.883 37.803 160.414 37.641 160.834 37.317C161.254 36.993 161.569 36.555 161.779 36.003C161.989 35.445 162.094 34.821 162.094 34.131C162.094 33.447 161.989 32.829 161.779 32.277C161.575 31.725 161.257 31.287 160.825 30.963C160.399 30.639 159.856 30.477 159.196 30.477C158.566 30.477 158.044 30.633 157.63 30.945C157.216 31.251 156.907 31.68 156.703 32.232C156.499 32.778 156.397 33.411 156.397 34.131C156.397 34.839 156.496 35.472 156.694 36.03C156.898 36.582 157.21 37.017 157.63 37.335C158.05 37.647 158.587 37.803 159.241 37.803ZM168.531 39.27C167.805 39.27 167.196 39.138 166.704 38.874C166.218 38.604 165.849 38.25 165.597 37.812C165.351 37.374 165.228 36.894 165.228 36.372C165.228 35.862 165.324 35.421 165.516 35.049C165.714 34.671 165.99 34.359 166.344 34.113C166.698 33.861 167.121 33.663 167.613 33.519C168.075 33.393 168.591 33.285 169.161 33.195C169.737 33.099 170.319 33.012 170.907 32.934C171.495 32.856 172.044 32.781 172.554 32.709L171.978 33.042C171.996 32.178 171.822 31.539 171.456 31.125C171.096 30.711 170.472 30.504 169.584 30.504C168.996 30.504 168.48 30.639 168.036 30.909C167.598 31.173 167.289 31.605 167.109 32.205L165.588 31.746C165.822 30.894 166.275 30.225 166.947 29.739C167.619 29.253 168.504 29.01 169.602 29.01C170.484 29.01 171.24 29.169 171.87 29.487C172.506 29.799 172.962 30.273 173.238 30.909C173.376 31.209 173.463 31.536 173.499 31.89C173.535 32.238 173.553 32.604 173.553 32.988V39H172.131V36.669L172.464 36.885C172.098 37.671 171.585 38.265 170.925 38.667C170.271 39.069 169.473 39.27 168.531 39.27ZM168.774 37.929C169.35 37.929 169.848 37.827 170.268 37.623C170.694 37.413 171.036 37.14 171.294 36.804C171.552 36.462 171.72 36.09 171.798 35.688C171.888 35.388 171.936 35.055 171.942 34.689C171.954 34.317 171.96 34.032 171.96 33.834L172.518 34.077C171.996 34.149 171.483 34.218 170.979 34.284C170.475 34.35 169.998 34.422 169.548 34.5C169.098 34.572 168.693 34.659 168.333 34.761C168.069 34.845 167.82 34.953 167.586 35.085C167.358 35.217 167.172 35.388 167.028 35.598C166.89 35.802 166.821 36.057 166.821 36.363C166.821 36.627 166.887 36.879 167.019 37.119C167.157 37.359 167.367 37.554 167.649 37.704C167.937 37.854 168.312 37.929 168.774 37.929ZM175.884 39V29.28H177.486V33.375H182.598V29.28H184.2V39H182.598V34.896H177.486V39H175.884ZM186.712 39V29.28H188.314V33.375H193.426V29.28H195.028V39H193.426V34.896H188.314V39H186.712ZM205.505 29.28V39H203.957V31.836L198.863 39H197.54V29.28H199.088V36.345L204.191 29.28H205.505ZM212.211 28.146C211.761 28.146 211.35 28.035 210.978 27.813C210.606 27.591 210.309 27.297 210.087 26.931C209.865 26.559 209.754 26.145 209.754 25.689H211.05C211.05 26.007 211.164 26.28 211.392 26.508C211.62 26.736 211.893 26.85 212.211 26.85C212.535 26.85 212.808 26.736 213.03 26.508C213.258 26.28 213.372 26.007 213.372 25.689H214.668C214.668 26.145 214.557 26.559 214.335 26.931C214.119 27.297 213.822 27.591 213.444 27.813C213.072 28.035 212.661 28.146 212.211 28.146ZM215.982 29.28V39H214.434V31.836L209.34 39H208.017V29.28H209.565V36.345L214.668 29.28H215.982ZM221.386 41.16V37.677C221.932 37.677 222.322 37.5 222.556 37.146C222.79 36.786 222.979 36.195 223.123 35.373C223.219 34.857 223.297 34.305 223.357 33.717C223.417 33.129 223.468 32.475 223.51 31.755C223.558 31.029 223.603 30.204 223.645 29.28H230.341V37.677H231.286V41.16H229.756V39H222.916V41.16H221.386ZM223.852 37.677H228.739V30.603H225.094C225.076 31.029 225.052 31.476 225.022 31.944C224.992 32.406 224.956 32.868 224.914 33.33C224.878 33.792 224.833 34.23 224.779 34.644C224.731 35.052 224.674 35.418 224.608 35.742C224.53 36.192 224.44 36.573 224.338 36.885C224.236 37.197 224.074 37.461 223.852 37.677ZM237.232 39.27C236.266 39.27 235.432 39.051 234.73 38.613C234.034 38.175 233.497 37.569 233.119 36.795C232.741 36.021 232.552 35.133 232.552 34.131C232.552 33.111 232.744 32.217 233.128 31.449C233.512 30.681 234.055 30.084 234.757 29.658C235.459 29.226 236.284 29.01 237.232 29.01C238.204 29.01 239.041 29.229 239.743 29.667C240.445 30.099 240.982 30.702 241.354 31.476C241.732 32.244 241.921 33.129 241.921 34.131C241.921 35.145 241.732 36.039 241.354 36.813C240.976 37.581 240.436 38.184 239.734 38.622C239.032 39.054 238.198 39.27 237.232 39.27ZM237.232 37.749C238.24 37.749 238.99 37.413 239.482 36.741C239.974 36.069 240.22 35.199 240.22 34.131C240.22 33.033 239.971 32.16 239.473 31.512C238.975 30.858 238.228 30.531 237.232 30.531C236.554 30.531 235.996 30.684 235.558 30.99C235.12 31.296 234.793 31.719 234.577 32.259C234.361 32.799 234.253 33.423 234.253 34.131C234.253 35.223 234.505 36.099 235.009 36.759C235.513 37.419 236.254 37.749 237.232 37.749ZM247.998 39.27C247.014 39.27 246.177 39.051 245.487 38.613C244.803 38.169 244.281 37.56 243.921 36.786C243.561 36.012 243.375 35.13 243.363 34.14C243.375 33.126 243.564 32.235 243.93 31.467C244.302 30.693 244.833 30.09 245.523 29.658C246.213 29.226 247.044 29.01 248.016 29.01C249.042 29.01 249.924 29.262 250.662 29.766C251.406 30.27 251.904 30.96 252.156 31.836L250.572 32.313C250.368 31.749 250.035 31.311 249.573 30.999C249.117 30.687 248.592 30.531 247.998 30.531C247.332 30.531 246.783 30.687 246.351 30.999C245.919 31.305 245.598 31.731 245.388 32.277C245.178 32.817 245.07 33.438 245.064 34.14C245.076 35.22 245.325 36.093 245.811 36.759C246.303 37.419 247.032 37.749 247.998 37.749C248.634 37.749 249.162 37.605 249.582 37.317C250.002 37.023 250.32 36.6 250.536 36.048L252.156 36.471C251.82 37.377 251.295 38.07 250.581 38.55C249.867 39.03 249.006 39.27 247.998 39.27ZM256.391 39V30.738H253.007V29.28H261.377V30.738H257.993V39H256.391ZM264.255 43.32L266.136 38.208L266.163 39.72L261.915 29.28H263.598L266.928 37.677H266.352L269.475 29.28H271.104L265.812 43.32H264.255ZM272.581 39V29.28H280.546V39H278.944V30.801H274.183V39H272.581Z" fill="white"/>
</svg>
