<svg width="328" height="194" viewBox="0 0 328 194" fill="none" xmlns="http://www.w3.org/2000/svg">
<rect x="0.0498047" y="0.256958" width="327.336" height="193.373" fill="#042C54"/>
<path d="M30.1645 29.1747C29.3297 29.1747 28.6288 28.9903 28.0619 28.6214C27.4949 28.2486 27.0678 27.7341 26.7805 27.0779C26.4931 26.4217 26.3495 25.6645 26.3495 24.8064C26.3495 23.9482 26.4931 23.1911 26.7805 22.5348C27.0678 21.8786 27.4949 21.3661 28.0619 20.9972C28.6288 20.6244 29.3297 20.438 30.1645 20.438C31.1391 20.438 31.9293 20.6904 32.5351 21.1952C33.1447 21.7 33.5582 22.3756 33.7757 23.2221L33.0826 23.391C32.9039 22.6882 32.57 22.131 32.0808 21.7194C31.5954 21.3039 30.9566 21.0962 30.1645 21.0962C29.4772 21.0962 28.9045 21.2534 28.4463 21.568C27.992 21.8825 27.6483 22.3193 27.4153 22.8785C27.1863 23.4376 27.0698 24.0803 27.0659 24.8064C27.0581 25.5325 27.1688 26.1751 27.3979 26.7343C27.6309 27.2895 27.9784 27.7264 28.4405 28.0448C28.9025 28.3593 29.4772 28.5166 30.1645 28.5166C30.9566 28.5166 31.5954 28.3088 32.0808 27.8933C32.57 27.4779 32.9039 26.9207 33.0826 26.2217L33.7757 26.3906C33.5582 27.2371 33.1447 27.9128 32.5351 28.4176C31.9293 28.9223 31.1391 29.1747 30.1645 29.1747ZM37.6435 29.1747C37.0416 29.1747 36.5213 29.0408 36.0825 28.7728C35.6438 28.501 35.304 28.1186 35.0632 27.6254C34.8225 27.1284 34.7021 26.5421 34.7021 25.8664C34.7021 25.1791 34.8206 24.587 35.0574 24.09C35.2982 23.5891 35.636 23.2046 36.0709 22.9367C36.5097 22.6688 37.03 22.5348 37.6318 22.5348C38.2415 22.5348 38.7618 22.6746 39.1928 22.9542C39.6277 23.2299 39.9577 23.6298 40.183 24.154C40.4121 24.6782 40.5208 25.3092 40.5091 26.047H39.8102V25.814C39.7908 24.952 39.5966 24.2958 39.2277 23.8453C38.8589 23.3949 38.3308 23.1697 37.6435 23.1697C36.9329 23.1697 36.3835 23.4046 35.9952 23.8745C35.6107 24.3404 35.4185 25.0005 35.4185 25.8548C35.4185 26.7013 35.6107 27.3575 35.9952 27.8235C36.3835 28.2894 36.929 28.5224 37.6318 28.5224C38.1172 28.5224 38.5405 28.4098 38.9016 28.1846C39.2666 27.9555 39.5559 27.6293 39.7694 27.2061L40.3752 27.474C40.1228 28.0176 39.7578 28.437 39.2802 28.7321C38.8026 29.0272 38.257 29.1747 37.6435 29.1747ZM35.1623 26.047V25.4412H40.1305V26.047H35.1623ZM41.7975 29V22.7096H42.4673V25.5286H46.2591V22.7096H46.9289V29H46.2591V26.181H42.4673V29H41.7975ZM50.308 29V23.3503H48.0306V22.7096H53.2552V23.3503H50.9778V29H50.308ZM56.4556 29L56.4673 28.3593L60.3231 24.8588C60.6648 24.552 60.8881 24.2589 60.9929 23.9793C61.0977 23.6958 61.1502 23.393 61.1502 23.0707C61.1502 22.7057 61.0628 22.3737 60.8881 22.0747C60.7133 21.7757 60.4765 21.5388 60.1775 21.3641C59.8824 21.1855 59.5504 21.0962 59.1815 21.0962C58.8048 21.0962 58.467 21.1874 58.168 21.3699C57.869 21.5524 57.6322 21.7932 57.4574 22.0922C57.2866 22.3912 57.2012 22.7173 57.2012 23.0707H56.5255C56.5255 22.5775 56.644 22.1329 56.8808 21.7369C57.1177 21.3369 57.4361 21.0205 57.836 20.7875C58.2399 20.5545 58.6903 20.438 59.1873 20.438C59.6882 20.438 60.1367 20.5584 60.5328 20.7991C60.9327 21.036 61.2492 21.3544 61.4822 21.7544C61.7151 22.1543 61.8316 22.595 61.8316 23.0765C61.8316 23.4104 61.7928 23.7094 61.7151 23.9735C61.6414 24.2336 61.5229 24.4783 61.3598 24.7074C61.1968 24.9326 60.9871 25.1597 60.7308 25.3888L57.0905 28.6913L56.9507 28.3418H61.8316V29H56.4556ZM66.0488 29.1747C65.5285 29.1747 65.0548 29.0485 64.6276 28.7961C64.2005 28.5399 63.8608 28.1982 63.6084 27.771C63.356 27.34 63.2298 26.8605 63.2298 26.3324V23.3037C63.2298 22.7678 63.356 22.2844 63.6084 21.8534C63.8608 21.4185 64.2005 21.0748 64.6276 20.8224C65.0587 20.5662 65.5421 20.438 66.0779 20.438C66.575 20.438 67.0312 20.5565 67.4467 20.7933C67.8661 21.0263 68.2 21.3408 68.4485 21.7369L67.9127 22.1271C67.7224 21.8165 67.4661 21.568 67.1438 21.3816C66.8215 21.1913 66.4662 21.0962 66.0779 21.0962C65.6625 21.0962 65.2916 21.1971 64.9655 21.3991C64.6393 21.601 64.3811 21.867 64.1908 22.197C64.0005 22.5232 63.9054 22.8785 63.9054 23.2629V25.2374L63.7074 25.0044C63.952 24.585 64.2821 24.2453 64.6975 23.9851C65.1169 23.7211 65.5809 23.5891 66.0896 23.5891C66.6021 23.5891 67.0681 23.7153 67.4875 23.9677C67.9107 24.2162 68.2446 24.552 68.4893 24.9753C68.7378 25.3946 68.862 25.8606 68.862 26.3732C68.862 26.8896 68.7339 27.3594 68.4776 27.7827C68.2252 28.2059 67.8855 28.5437 67.4583 28.7961C67.0312 29.0485 66.5614 29.1747 66.0488 29.1747ZM66.0488 28.5166C66.4449 28.5166 66.8041 28.4214 67.1263 28.2312C67.4525 28.037 67.7107 27.7788 67.901 27.4565C68.0913 27.1303 68.1864 26.7692 68.1864 26.3732C68.1864 25.9771 68.0913 25.6179 67.901 25.2956C67.7107 24.9695 67.4525 24.7112 67.1263 24.521C66.8041 24.3307 66.4449 24.2356 66.0488 24.2356C65.6528 24.2356 65.2916 24.3307 64.9655 24.521C64.6432 24.7112 64.385 24.9695 64.1908 25.2956C64.0005 25.6179 63.9054 25.9771 63.9054 26.3732C63.9054 26.7692 64.0005 27.1303 64.1908 27.4565C64.385 27.7788 64.6432 28.037 64.9655 28.2312C65.2916 28.4214 65.6528 28.5166 66.0488 28.5166ZM70.337 30.1241L70.3836 29.763C70.5273 29.7708 70.6282 29.7378 70.6865 29.664C70.7447 29.5941 70.7777 29.499 70.7855 29.3786C70.7971 29.2621 70.7991 29.1359 70.7913 29H70.337V27.8642H71.1816V29.2912C71.1816 29.598 71.102 29.8271 70.9427 29.9785C70.7835 30.1299 70.5816 30.1785 70.337 30.1241ZM75.4989 29L75.5106 28.3593L79.3664 24.8588C79.7081 24.552 79.9314 24.2589 80.0362 23.9793C80.1411 23.6958 80.1935 23.393 80.1935 23.0707C80.1935 22.7057 80.1061 22.3737 79.9314 22.0747C79.7566 21.7757 79.5198 21.5388 79.2208 21.3641C78.9257 21.1855 78.5937 21.0962 78.2248 21.0962C77.8481 21.0962 77.5103 21.1874 77.2113 21.3699C76.9124 21.5524 76.6755 21.7932 76.5008 22.0922C76.3299 22.3912 76.2445 22.7173 76.2445 23.0707H75.5688C75.5688 22.5775 75.6873 22.1329 75.9241 21.7369C76.161 21.3369 76.4794 21.0205 76.8793 20.7875C77.2832 20.5545 77.7336 20.438 78.2306 20.438C78.7315 20.438 79.18 20.5584 79.5761 20.7991C79.976 21.036 80.2925 21.3544 80.5255 21.7544C80.7584 22.1543 80.8749 22.595 80.8749 23.0765C80.8749 23.4104 80.8361 23.7094 80.7584 23.9735C80.6847 24.2336 80.5662 24.4783 80.4032 24.7074C80.2401 24.9326 80.0304 25.1597 79.7741 25.3888L76.1338 28.6913L75.994 28.3418H80.8749V29H75.4989ZM84.9174 29.1747C84.4243 29.1747 83.9777 29.0563 83.5778 28.8194C83.1817 28.5826 82.8652 28.2661 82.6284 27.8701C82.3915 27.4701 82.2731 27.0236 82.2731 26.5304V23.0823C82.2731 22.5892 82.3915 22.1446 82.6284 21.7485C82.8652 21.3486 83.1817 21.0302 83.5778 20.7933C83.9777 20.5565 84.4243 20.438 84.9174 20.438C85.4105 20.438 85.8571 20.5565 86.257 20.7933C86.657 21.0302 86.9734 21.3486 87.2064 21.7485C87.4433 22.1446 87.5617 22.5892 87.5617 23.0823V26.5304C87.5617 27.0236 87.4433 27.4701 87.2064 27.8701C86.9734 28.2661 86.657 28.5826 86.257 28.8194C85.8571 29.0563 85.4105 29.1747 84.9174 29.1747ZM84.9174 28.5166C85.2785 28.5166 85.6066 28.4292 85.9017 28.2545C86.2007 28.0758 86.4395 27.837 86.6181 27.5381C86.7968 27.2391 86.8861 26.909 86.8861 26.5479V23.059C86.8861 22.7018 86.7968 22.3737 86.6181 22.0747C86.4395 21.7757 86.2007 21.5388 85.9017 21.3641C85.6066 21.1855 85.2785 21.0962 84.9174 21.0962C84.5563 21.0962 84.2262 21.1855 83.9272 21.3641C83.6321 21.5388 83.3953 21.7757 83.2166 22.0747C83.038 22.3737 82.9487 22.7018 82.9487 23.059V26.5479C82.9487 26.909 83.038 27.2391 83.2166 27.5381C83.3953 27.837 83.6321 28.0758 83.9272 28.2545C84.2262 28.4292 84.5563 28.5166 84.9174 28.5166ZM88.9567 29L88.9683 28.3593L92.8241 24.8588C93.1658 24.552 93.3891 24.2589 93.4939 23.9793C93.5988 23.6958 93.6512 23.393 93.6512 23.0707C93.6512 22.7057 93.5638 22.3737 93.3891 22.0747C93.2144 21.7757 92.9775 21.5388 92.6785 21.3641C92.3834 21.1855 92.0514 21.0962 91.6825 21.0962C91.3059 21.0962 90.9681 21.1874 90.6691 21.3699C90.3701 21.5524 90.1332 21.7932 89.9585 22.0922C89.7876 22.3912 89.7022 22.7173 89.7022 23.0707H89.0266C89.0266 22.5775 89.145 22.1329 89.3819 21.7369C89.6187 21.3369 89.9371 21.0205 90.3371 20.7875C90.7409 20.5545 91.1913 20.438 91.6883 20.438C92.1892 20.438 92.6377 20.5584 93.0338 20.7991C93.4337 21.036 93.7502 21.3544 93.9832 21.7544C94.2162 22.1543 94.3327 22.595 94.3327 23.0765C94.3327 23.4104 94.2938 23.7094 94.2162 23.9735C94.1424 24.2336 94.024 24.4783 93.8609 24.7074C93.6978 24.9326 93.4881 25.1597 93.2318 25.3888L89.5915 28.6913L89.4517 28.3418H94.3327V29H88.9567ZM97.1986 29V21.3758L95.6143 22.3252V21.5563L97.1986 20.6128H97.8742V29H97.1986Z" fill="white"/>
<path d="M32.108 167V162.872L32.354 163.256C32.07 163.452 31.728 163.614 31.328 163.742C30.928 163.866 30.468 163.928 29.948 163.928C29.192 163.928 28.586 163.792 28.13 163.52C27.674 163.244 27.344 162.866 27.14 162.386C26.94 161.902 26.84 161.352 26.84 160.736V158.36H27.536V160.472C27.536 160.908 27.58 161.298 27.668 161.642C27.76 161.982 27.902 162.272 28.094 162.512C28.29 162.748 28.542 162.928 28.85 163.052C29.158 163.172 29.528 163.232 29.96 163.232C30.516 163.232 30.996 163.15 31.4 162.986C31.804 162.822 32.104 162.644 32.3 162.452L32.108 163.154V158.36H32.804V167H32.108ZM39.4726 160.52V167H38.7946V161.678L35.0866 167H34.4806V160.52H35.1586V165.818L38.8666 160.52H39.4726ZM42.9546 167V161.18H40.6086V160.52H45.9906V161.18H43.6446V167H42.9546ZM48.7276 167.18C48.2276 167.18 47.8116 167.092 47.4796 166.916C47.1516 166.74 46.9056 166.508 46.7416 166.22C46.5776 165.928 46.4956 165.612 46.4956 165.272C46.4956 164.904 46.5716 164.596 46.7236 164.348C46.8796 164.1 47.0856 163.9 47.3416 163.748C47.6016 163.596 47.8876 163.482 48.1996 163.406C48.5556 163.326 48.9396 163.258 49.3516 163.202C49.7636 163.142 50.1556 163.09 50.5276 163.046C50.9036 163.002 51.2096 162.964 51.4456 162.932L51.1936 163.082C51.2096 162.382 51.0776 161.862 50.7976 161.522C50.5216 161.178 50.0336 161.006 49.3336 161.006C48.8416 161.006 48.4356 161.118 48.1156 161.342C47.7996 161.562 47.5776 161.904 47.4496 162.368L46.7416 162.17C46.8896 161.582 47.1876 161.13 47.6356 160.814C48.0836 160.498 48.6576 160.34 49.3576 160.34C49.9536 160.34 50.4536 160.456 50.8576 160.688C51.2656 160.92 51.5496 161.246 51.7096 161.666C51.7776 161.838 51.8236 162.04 51.8476 162.272C51.8716 162.5 51.8836 162.73 51.8836 162.962V167H51.2536V165.296L51.4876 165.356C51.2916 165.94 50.9496 166.39 50.4616 166.706C49.9736 167.022 49.3956 167.18 48.7276 167.18ZM48.7636 166.544C49.2036 166.544 49.5896 166.466 49.9216 166.31C50.2536 166.15 50.5216 165.928 50.7256 165.644C50.9336 165.356 51.0656 165.018 51.1216 164.63C51.1616 164.414 51.1836 164.18 51.1876 163.928C51.1916 163.676 51.1936 163.49 51.1936 163.37L51.4936 163.562C51.2336 163.594 50.9216 163.628 50.5576 163.664C50.1976 163.7 49.8296 163.744 49.4536 163.796C49.0776 163.848 48.7376 163.914 48.4336 163.994C48.2456 164.046 48.0556 164.122 47.8636 164.222C47.6756 164.318 47.5176 164.452 47.3896 164.624C47.2656 164.796 47.2036 165.014 47.2036 165.278C47.2036 165.474 47.2516 165.67 47.3476 165.866C47.4476 166.062 47.6116 166.224 47.8396 166.352C48.0676 166.48 48.3756 166.544 48.7636 166.544ZM55.2476 167V161.18H52.9016V160.52H58.2836V161.18H55.9376V167H55.2476ZM59.4241 167L59.4181 160.52H60.1201V163.052H61.7521C61.9441 163.052 62.1221 163.056 62.2861 163.064C62.4541 163.072 62.6081 163.09 62.7481 163.118C63.0521 163.17 63.3261 163.268 63.5701 163.412C63.8181 163.556 64.0141 163.76 64.1581 164.024C64.3061 164.284 64.3801 164.618 64.3801 165.026C64.3801 165.574 64.2361 166.004 63.9481 166.316C63.6641 166.628 63.3201 166.828 62.9161 166.916C62.7521 166.952 62.5801 166.976 62.4001 166.988C62.2201 166.996 62.0381 167 61.8541 167H59.4241ZM60.1201 166.37H61.7641C61.9121 166.37 62.0801 166.366 62.2681 166.358C62.4561 166.35 62.6181 166.328 62.7541 166.292C62.9781 166.224 63.1841 166.098 63.3721 165.914C63.5601 165.73 63.6541 165.434 63.6541 165.026C63.6541 164.626 63.5641 164.33 63.3841 164.138C63.2081 163.942 62.9681 163.814 62.6641 163.754C62.5241 163.722 62.3761 163.702 62.2201 163.694C62.0641 163.686 61.9121 163.682 61.7641 163.682H60.1201V166.37ZM68.1017 167V160.52H73.0937V167H72.4037V161.192H68.7917V167H68.1017ZM77.4277 167.18C76.7837 167.18 76.2377 167.034 75.7897 166.742C75.3417 166.45 74.9997 166.046 74.7637 165.53C74.5277 165.014 74.4097 164.42 74.4097 163.748C74.4097 163.072 74.5297 162.478 74.7697 161.966C75.0097 161.45 75.3537 161.05 75.8017 160.766C76.2537 160.482 76.7957 160.34 77.4277 160.34C78.0717 160.34 78.6177 160.486 79.0657 160.778C79.5177 161.066 79.8597 161.466 80.0917 161.978C80.3277 162.49 80.4457 163.08 80.4457 163.748C80.4457 164.432 80.3277 165.032 80.0917 165.548C79.8557 166.06 79.5117 166.46 79.0597 166.748C78.6077 167.036 78.0637 167.18 77.4277 167.18ZM77.4277 166.508C78.1917 166.508 78.7617 166.252 79.1377 165.74C79.5177 165.228 79.7077 164.564 79.7077 163.748C79.7077 162.916 79.5177 162.252 79.1377 161.756C78.7577 161.26 78.1877 161.012 77.4277 161.012C76.9117 161.012 76.4857 161.13 76.1497 161.366C75.8137 161.598 75.5617 161.92 75.3937 162.332C75.2297 162.74 75.1477 163.212 75.1477 163.748C75.1477 164.58 75.3397 165.248 75.7237 165.752C76.1117 166.256 76.6797 166.508 77.4277 166.508ZM81.1658 167V166.376C81.4098 166.42 81.5938 166.408 81.7178 166.34C81.8418 166.268 81.9318 166.152 81.9878 165.992C82.0478 165.828 82.0958 165.63 82.1318 165.398C82.1998 164.998 82.2598 164.562 82.3118 164.09C82.3638 163.614 82.4118 163.084 82.4558 162.5C82.4998 161.912 82.5438 161.252 82.5878 160.52H86.8778V167H86.1818V161.192H83.2598C83.2278 161.672 83.1918 162.138 83.1518 162.59C83.1158 163.042 83.0758 163.472 83.0318 163.88C82.9918 164.284 82.9478 164.654 82.8998 164.99C82.8558 165.322 82.8078 165.61 82.7558 165.854C82.6958 166.174 82.6138 166.432 82.5098 166.628C82.4098 166.82 82.2558 166.948 82.0478 167.012C81.8398 167.076 81.5458 167.072 81.1658 167ZM88.5627 167V160.52H89.2527V163.424H93.1587V160.52H93.8487V167H93.1587V164.096H89.2527V167H88.5627ZM96.4716 169.88L97.7316 166.49L97.7436 167.498L94.9056 160.52H95.6436L98.0796 166.58H97.6956L99.9096 160.52H100.636L97.1916 169.88H96.4716ZM106.637 167.18C106.045 167.18 105.535 167.052 105.107 166.796C104.679 166.54 104.345 166.182 104.105 165.722C103.865 165.258 103.725 164.72 103.685 164.108H102.413V167H101.723V160.52H102.413V163.412H103.673C103.713 162.788 103.855 162.246 104.099 161.786C104.347 161.326 104.685 160.97 105.113 160.718C105.541 160.466 106.047 160.34 106.631 160.34C107.279 160.34 107.827 160.486 108.275 160.778C108.727 161.066 109.069 161.468 109.301 161.984C109.537 162.496 109.655 163.084 109.655 163.748C109.655 164.428 109.537 165.026 109.301 165.542C109.065 166.058 108.721 166.46 108.269 166.748C107.821 167.036 107.277 167.18 106.637 167.18ZM106.613 166.508C107.393 166.508 107.971 166.256 108.347 165.752C108.727 165.244 108.917 164.576 108.917 163.748C108.917 162.912 108.725 162.248 108.341 161.756C107.961 161.26 107.389 161.012 106.625 161.012C105.905 161.012 105.347 161.254 104.951 161.738C104.555 162.218 104.357 162.888 104.357 163.748C104.357 164.58 104.549 165.248 104.933 165.752C105.317 166.256 105.877 166.508 106.613 166.508ZM116.017 167.18C115.369 167.18 114.823 167.036 114.379 166.748C113.935 166.456 113.597 166.054 113.365 165.542C113.137 165.026 113.019 164.432 113.011 163.76C113.019 163.076 113.139 162.478 113.371 161.966C113.607 161.45 113.947 161.05 114.391 160.766C114.835 160.482 115.379 160.34 116.023 160.34C116.651 160.34 117.203 160.492 117.679 160.796C118.159 161.096 118.491 161.51 118.675 162.038L118.003 162.284C117.839 161.88 117.581 161.568 117.229 161.348C116.877 161.124 116.473 161.012 116.017 161.012C115.505 161.012 115.083 161.13 114.751 161.366C114.419 161.598 114.171 161.92 114.007 162.332C113.843 162.744 113.757 163.22 113.749 163.76C113.761 164.588 113.955 165.254 114.331 165.758C114.711 166.258 115.273 166.508 116.017 166.508C116.477 166.508 116.875 166.402 117.211 166.19C117.551 165.978 117.811 165.67 117.991 165.266L118.675 165.5C118.423 166.048 118.071 166.466 117.619 166.754C117.167 167.038 116.633 167.18 116.017 167.18ZM121.541 167V161.18H119.195V160.52H124.577V161.18H122.231V167H121.541ZM127.314 167.18C126.814 167.18 126.398 167.092 126.066 166.916C125.738 166.74 125.492 166.508 125.328 166.22C125.164 165.928 125.082 165.612 125.082 165.272C125.082 164.904 125.158 164.596 125.31 164.348C125.466 164.1 125.672 163.9 125.928 163.748C126.188 163.596 126.474 163.482 126.786 163.406C127.142 163.326 127.526 163.258 127.938 163.202C128.35 163.142 128.742 163.09 129.114 163.046C129.49 163.002 129.796 162.964 130.032 162.932L129.78 163.082C129.796 162.382 129.664 161.862 129.384 161.522C129.108 161.178 128.62 161.006 127.92 161.006C127.428 161.006 127.022 161.118 126.702 161.342C126.386 161.562 126.164 161.904 126.036 162.368L125.328 162.17C125.476 161.582 125.774 161.13 126.222 160.814C126.67 160.498 127.244 160.34 127.944 160.34C128.54 160.34 129.04 160.456 129.444 160.688C129.852 160.92 130.136 161.246 130.296 161.666C130.364 161.838 130.41 162.04 130.434 162.272C130.458 162.5 130.47 162.73 130.47 162.962V167H129.84V165.296L130.074 165.356C129.878 165.94 129.536 166.39 129.048 166.706C128.56 167.022 127.982 167.18 127.314 167.18ZM127.35 166.544C127.79 166.544 128.176 166.466 128.508 166.31C128.84 166.15 129.108 165.928 129.312 165.644C129.52 165.356 129.652 165.018 129.708 164.63C129.748 164.414 129.77 164.18 129.774 163.928C129.778 163.676 129.78 163.49 129.78 163.37L130.08 163.562C129.82 163.594 129.508 163.628 129.144 163.664C128.784 163.7 128.416 163.744 128.04 163.796C127.664 163.848 127.324 163.914 127.02 163.994C126.832 164.046 126.642 164.122 126.45 164.222C126.262 164.318 126.104 164.452 125.976 164.624C125.852 164.796 125.79 165.014 125.79 165.278C125.79 165.474 125.838 165.67 125.934 165.866C126.034 166.062 126.198 166.224 126.426 166.352C126.654 166.48 126.962 166.544 127.35 166.544ZM133.834 167V161.18H131.488V160.52H136.87V161.18H134.524V167H133.834ZM138.01 167L138.004 160.52H138.706V163.052H140.338C140.53 163.052 140.708 163.056 140.872 163.064C141.04 163.072 141.194 163.09 141.334 163.118C141.638 163.17 141.912 163.268 142.156 163.412C142.404 163.556 142.6 163.76 142.744 164.024C142.892 164.284 142.966 164.618 142.966 165.026C142.966 165.574 142.822 166.004 142.534 166.316C142.25 166.628 141.906 166.828 141.502 166.916C141.338 166.952 141.166 166.976 140.986 166.988C140.806 166.996 140.624 167 140.44 167H138.01ZM138.706 166.37H140.35C140.498 166.37 140.666 166.366 140.854 166.358C141.042 166.35 141.204 166.328 141.34 166.292C141.564 166.224 141.77 166.098 141.958 165.914C142.146 165.73 142.24 165.434 142.24 165.026C142.24 164.626 142.15 164.33 141.97 164.138C141.794 163.942 141.554 163.814 141.25 163.754C141.11 163.722 140.962 163.702 140.806 163.694C140.65 163.686 140.498 163.682 140.35 163.682H138.706V166.37ZM149.024 167.18C148.432 167.18 147.922 167.052 147.494 166.796C147.066 166.54 146.732 166.182 146.492 165.722C146.252 165.258 146.112 164.72 146.072 164.108H144.8V167H144.11V160.52H144.8V163.412H146.06C146.1 162.788 146.242 162.246 146.486 161.786C146.734 161.326 147.072 160.97 147.5 160.718C147.928 160.466 148.434 160.34 149.018 160.34C149.666 160.34 150.214 160.486 150.662 160.778C151.114 161.066 151.456 161.468 151.688 161.984C151.924 162.496 152.042 163.084 152.042 163.748C152.042 164.428 151.924 165.026 151.688 165.542C151.452 166.058 151.108 166.46 150.656 166.748C150.208 167.036 149.664 167.18 149.024 167.18ZM149 166.508C149.78 166.508 150.358 166.256 150.734 165.752C151.114 165.244 151.304 164.576 151.304 163.748C151.304 162.912 151.112 162.248 150.728 161.756C150.348 161.26 149.776 161.012 149.012 161.012C148.292 161.012 147.734 161.254 147.338 161.738C146.942 162.218 146.744 162.888 146.744 163.748C146.744 164.58 146.936 165.248 147.32 165.752C147.704 166.256 148.264 166.508 149 166.508Z" fill="white"/>
<path d="M32.7075 64.4782C31.8462 64.4782 31.026 64.3262 30.247 64.0222C29.468 63.7119 28.7777 63.2559 28.176 62.6542C27.5807 62.0526 27.1088 61.3084 26.7605 60.4217C26.4185 59.5351 26.2475 58.5122 26.2475 57.3532C26.2475 55.8396 26.5357 54.5539 27.112 53.4962C27.6947 52.4322 28.4737 51.6216 29.449 51.0642C30.4307 50.5069 31.5168 50.2282 32.7075 50.2282C34.4682 50.2282 35.852 50.6367 36.859 51.4537C37.866 52.2707 38.5405 53.4266 38.8825 54.9212L36.2415 55.3012C35.9945 54.5032 35.5892 53.8667 35.0255 53.3917C34.4682 52.9104 33.7525 52.6666 32.8785 52.6602C32.0108 52.6476 31.2888 52.8344 30.7125 53.2207C30.1362 53.6071 29.7023 54.1549 29.411 54.8642C29.126 55.5736 28.9835 56.4032 28.9835 57.3532C28.9835 58.3032 29.126 59.1266 29.411 59.8232C29.7023 60.5199 30.1362 61.0614 30.7125 61.4477C31.2888 61.8341 32.0108 62.0336 32.8785 62.0462C33.4675 62.0589 33.9995 61.9576 34.4745 61.7422C34.9558 61.5269 35.3612 61.1881 35.6905 60.7257C36.0198 60.2634 36.2542 59.6712 36.3935 58.9492H34.2275V56.9542H39.1485C39.1612 57.0366 39.1707 57.1822 39.177 57.3912C39.1833 57.6002 39.1865 57.7206 39.1865 57.7522C39.1865 59.0632 38.9205 60.2254 38.3885 61.2387C37.8565 62.2521 37.106 63.0469 36.137 63.6232C35.168 64.1932 34.0248 64.4782 32.7075 64.4782ZM41.0905 64.1932V50.5132H46.8665C46.9995 50.5132 47.1768 50.5196 47.3985 50.5322C47.6265 50.5386 47.8292 50.5576 48.0065 50.5892C48.8235 50.7159 49.4917 50.9851 50.011 51.3967C50.5367 51.8084 50.923 52.3277 51.17 52.9547C51.417 53.5754 51.5405 54.2689 51.5405 55.0352C51.5405 55.8016 51.4138 56.4982 51.1605 57.1252C50.9135 57.7459 50.5272 58.2621 50.0015 58.6737C49.4822 59.0854 48.8172 59.3546 48.0065 59.4812C47.8292 59.5066 47.6265 59.5256 47.3985 59.5382C47.1705 59.5509 46.9932 59.5572 46.8665 59.5572H43.6745V64.1932H41.0905ZM43.6745 57.1442H46.7525C46.8855 57.1442 47.0312 57.1379 47.1895 57.1252C47.3478 57.1126 47.4935 57.0872 47.6265 57.0492C47.9748 56.9542 48.244 56.7959 48.434 56.5742C48.624 56.3462 48.7538 56.0961 48.8235 55.8237C48.8995 55.5451 48.9375 55.2822 48.9375 55.0352C48.9375 54.7882 48.8995 54.5286 48.8235 54.2562C48.7538 53.9776 48.624 53.7274 48.434 53.5057C48.244 53.2777 47.9748 53.1162 47.6265 53.0212C47.4935 52.9832 47.3478 52.9579 47.1895 52.9452C47.0312 52.9326 46.8855 52.9262 46.7525 52.9262H43.6745V57.1442ZM56.6209 64.1932V52.9262H52.3079V50.5132H63.5179V52.9262H59.2049V64.1932H56.6209ZM62.962 59.1962V57.2012H68.662V59.1962H62.962ZM74.3598 64.4402C73.6758 64.4402 73.0235 64.3041 72.4028 64.0317C71.7821 63.7531 71.2406 63.3636 70.7783 62.8632C70.3223 62.3629 69.9961 61.7739 69.7998 61.0962L72.3078 60.4312C72.4408 60.9316 72.7005 61.3211 73.0868 61.5997C73.4795 61.8721 73.9038 62.0082 74.3598 62.0082C74.7525 62.0082 75.1103 61.9132 75.4333 61.7232C75.7626 61.5332 76.0223 61.2767 76.2123 60.9537C76.4086 60.6307 76.5068 60.2729 76.5068 59.8802C76.5068 59.2912 76.3041 58.7877 75.8988 58.3697C75.4998 57.9454 74.9868 57.7332 74.3598 57.7332C74.1698 57.7332 73.9861 57.7617 73.8088 57.8187C73.6315 57.8694 73.4605 57.9422 73.2958 58.0372L72.1368 56.0042L76.4878 52.3942L76.6778 52.9452H70.3318V50.5132H78.8818V52.9452L75.4998 56.2132L75.4808 55.4912C76.2661 55.6116 76.928 55.8871 77.4663 56.3177C78.011 56.7421 78.4226 57.2677 78.7013 57.8947C78.9863 58.5154 79.1288 59.1772 79.1288 59.8802C79.1288 60.7416 78.9103 61.5174 78.4733 62.2077C78.0363 62.8917 77.4568 63.4364 76.7348 63.8417C76.0128 64.2407 75.2211 64.4402 74.3598 64.4402ZM94.5381 53.9332V64.1932H92.0681V57.9232L87.4321 64.1932H85.3801V53.9332H87.8501V59.9942L92.5051 53.9332H94.5381ZM106.875 64.4782C105.507 64.4782 104.325 64.1806 103.331 63.5852C102.343 62.9899 101.58 62.1571 101.042 61.0867C100.51 60.0164 100.244 58.7719 100.244 57.3532C100.244 55.9346 100.51 54.6901 101.042 53.6197C101.58 52.5494 102.343 51.7166 103.331 51.1212C104.325 50.5259 105.507 50.2282 106.875 50.2282C108.243 50.2282 109.421 50.5259 110.409 51.1212C111.403 51.7166 112.166 52.5494 112.698 53.6197C113.236 54.6901 113.506 55.9346 113.506 57.3532C113.506 58.7719 113.236 60.0164 112.698 61.0867C112.166 62.1571 111.403 62.9899 110.409 63.5852C109.421 64.1806 108.243 64.4782 106.875 64.4782ZM106.875 62.0462C107.742 62.0589 108.464 61.8721 109.041 61.4857C109.617 61.0994 110.048 60.5516 110.333 59.8422C110.624 59.1329 110.77 58.3032 110.77 57.3532C110.77 56.4032 110.624 55.5799 110.333 54.8832C110.048 54.1866 109.617 53.6451 109.041 53.2587C108.464 52.8724 107.742 52.6729 106.875 52.6602C106.007 52.6476 105.285 52.8344 104.709 53.2207C104.132 53.6071 103.698 54.1549 103.407 54.8642C103.122 55.5736 102.98 56.4032 102.98 57.3532C102.98 58.3032 103.122 59.1266 103.407 59.8232C103.698 60.5199 104.132 61.0614 104.709 61.4477C105.285 61.8341 106.007 62.0336 106.875 62.0462ZM120.437 64.4782C119.417 64.4782 118.566 64.2407 117.882 63.7657C117.198 63.2907 116.681 62.6447 116.333 61.8277C115.991 61.0107 115.82 60.0892 115.82 59.0632C115.82 58.0372 115.991 57.1157 116.333 56.2987C116.675 55.4817 117.179 54.8357 117.844 54.3607C118.509 53.8857 119.329 53.6482 120.304 53.6482C121.286 53.6482 122.141 53.8826 122.869 54.3512C123.597 54.8199 124.161 55.4627 124.56 56.2797C124.965 57.0904 125.168 58.0182 125.168 59.0632C125.168 60.0892 124.969 61.0107 124.57 61.8277C124.177 62.6447 123.626 63.2907 122.917 63.7657C122.207 64.2407 121.381 64.4782 120.437 64.4782ZM115.383 68.7532V53.9332H117.663V60.9632H117.986V68.7532H115.383ZM120.019 62.1792C120.576 62.1792 121.032 62.0399 121.387 61.7612C121.742 61.4826 122.005 61.1089 122.176 60.6402C122.347 60.1652 122.432 59.6396 122.432 59.0632C122.432 58.4932 122.343 57.9739 122.166 57.5052C121.989 57.0302 121.713 56.6534 121.34 56.3747C120.972 56.0897 120.5 55.9472 119.924 55.9472C119.386 55.9472 118.949 56.0771 118.613 56.3367C118.284 56.5964 118.043 56.9606 117.891 57.4292C117.739 57.8979 117.663 58.4426 117.663 59.0632C117.663 59.6839 117.739 60.2286 117.891 60.6972C118.043 61.1659 118.29 61.5301 118.632 61.7897C118.98 62.0494 119.443 62.1792 120.019 62.1792ZM132.027 64.4782C130.976 64.4782 130.048 64.2534 129.244 63.8037C128.446 63.3477 127.819 62.7239 127.363 61.9322C126.913 61.1342 126.688 60.2222 126.688 59.1962C126.688 58.0752 126.91 57.0999 127.353 56.2702C127.797 55.4406 128.408 54.7977 129.187 54.3417C129.966 53.8794 130.862 53.6482 131.875 53.6482C132.952 53.6482 133.867 53.9016 134.621 54.4082C135.375 54.9149 135.932 55.6274 136.293 56.5457C136.654 57.4641 136.781 58.5439 136.673 59.7852H134.117V58.8352C134.117 57.7902 133.95 57.0397 133.614 56.5837C133.285 56.1214 132.743 55.8902 131.989 55.8902C131.109 55.8902 130.46 56.1594 130.042 56.6977C129.63 57.2297 129.424 58.0182 129.424 59.0632C129.424 60.0196 129.63 60.7606 130.042 61.2862C130.46 61.8056 131.071 62.0652 131.875 62.0652C132.382 62.0652 132.816 61.9544 133.177 61.7327C133.538 61.5111 133.813 61.1912 134.003 60.7732L136.587 61.5142C136.201 62.4516 135.59 63.1799 134.754 63.6992C133.924 64.2186 133.015 64.4782 132.027 64.4782ZM128.626 59.7852V57.8662H135.428V59.7852H128.626ZM145.532 64.1932V59.3482C145.532 59.1139 145.519 58.8162 145.494 58.4552C145.468 58.0879 145.389 57.7206 145.256 57.3532C145.123 56.9859 144.905 56.6787 144.601 56.4317C144.303 56.1847 143.879 56.0612 143.328 56.0612C143.106 56.0612 142.869 56.0961 142.615 56.1657C142.362 56.2354 142.124 56.3716 141.903 56.5742C141.681 56.7706 141.497 57.0619 141.352 57.4482C141.212 57.8346 141.143 58.3476 141.143 58.9872L139.661 58.2842C139.661 57.4736 139.825 56.7136 140.155 56.0042C140.484 55.2949 140.978 54.7217 141.637 54.2847C142.302 53.8477 143.138 53.6292 144.145 53.6292C144.949 53.6292 145.605 53.7654 146.111 54.0377C146.618 54.3101 147.011 54.6552 147.289 55.0732C147.574 55.4912 147.777 55.9282 147.897 56.3842C148.018 56.8339 148.09 57.2456 148.116 57.6192C148.141 57.9929 148.154 58.2652 148.154 58.4362V64.1932H145.532ZM138.521 64.1932V53.9332H140.82V57.3342H141.143V64.1932H138.521ZM153.469 64.4782C152.734 64.4782 152.11 64.3389 151.597 64.0602C151.091 63.7752 150.704 63.3984 150.438 62.9297C150.179 62.4547 150.049 61.9322 150.049 61.3622C150.049 60.8872 150.122 60.4534 150.267 60.0607C150.413 59.6681 150.647 59.3229 150.97 59.0252C151.3 58.7212 151.74 58.4679 152.291 58.2652C152.671 58.1259 153.124 58.0024 153.649 57.8947C154.175 57.7871 154.77 57.6857 155.435 57.5907C156.1 57.4894 156.832 57.3786 157.63 57.2582L156.699 57.7712C156.699 57.1632 156.553 56.7167 156.262 56.4317C155.97 56.1467 155.483 56.0042 154.799 56.0042C154.419 56.0042 154.023 56.0961 153.611 56.2797C153.2 56.4634 152.911 56.7896 152.747 57.2582L150.41 56.5172C150.669 55.6686 151.157 54.9782 151.873 54.4462C152.588 53.9142 153.564 53.6482 154.799 53.6482C155.704 53.6482 156.509 53.7876 157.212 54.0662C157.915 54.3449 158.447 54.8262 158.808 55.5102C159.01 55.8902 159.131 56.2702 159.169 56.6502C159.207 57.0302 159.226 57.4546 159.226 57.9232V64.1932H156.965V62.0842L157.288 62.5212C156.787 63.2116 156.246 63.7119 155.663 64.0222C155.087 64.3262 154.355 64.4782 153.469 64.4782ZM154.02 62.4452C154.495 62.4452 154.894 62.3629 155.217 62.1982C155.546 62.0272 155.806 61.8341 155.996 61.6187C156.192 61.4034 156.325 61.2229 156.395 61.0772C156.528 60.7986 156.604 60.4756 156.623 60.1082C156.648 59.7346 156.661 59.4242 156.661 59.1772L157.421 59.3672C156.654 59.4939 156.034 59.6016 155.559 59.6902C155.084 59.7726 154.701 59.8486 154.409 59.9182C154.118 59.9879 153.861 60.0639 153.64 60.1462C153.386 60.2476 153.181 60.3584 153.022 60.4787C152.87 60.5927 152.756 60.7194 152.68 60.8587C152.611 60.9981 152.576 61.1532 152.576 61.3242C152.576 61.5586 152.633 61.7612 152.747 61.9322C152.867 62.0969 153.035 62.2236 153.25 62.3122C153.466 62.4009 153.722 62.4452 154.02 62.4452ZM161.886 52.5082V50.2282H164.47V52.5082H161.886ZM161.886 64.1932V53.9332H164.47V64.1932H161.886ZM170.932 59.1962V57.2012H178.912V59.1962H170.932ZM189.1 64.4782C187.916 64.4782 186.918 64.1837 186.108 63.5947C185.297 63.0057 184.743 62.1666 184.445 61.0772L187.086 60.5262C187.238 61.0202 187.466 61.4002 187.77 61.6662C188.081 61.9322 188.524 62.0652 189.1 62.0652C189.727 62.0652 190.231 61.8847 190.611 61.5237C190.991 61.1564 191.241 60.6656 191.361 60.0512H188.34V58.0562H191.361C191.247 57.4926 191.01 57.0207 190.649 56.6407C190.288 56.2544 189.797 56.0612 189.176 56.0612C188.663 56.0612 188.217 56.2069 187.837 56.4982C187.463 56.7832 187.194 57.2012 187.029 57.7522L184.445 57.0682C184.673 56.0106 185.199 55.1777 186.022 54.5697C186.846 53.9554 187.859 53.6482 189.062 53.6482C190.107 53.6482 191.013 53.8826 191.779 54.3512C192.552 54.8199 193.147 55.4659 193.565 56.2892C193.983 57.1062 194.192 58.0372 194.192 59.0822C194.192 60.1019 193.99 61.0202 193.584 61.8372C193.179 62.6479 192.596 63.2907 191.836 63.7657C191.076 64.2407 190.164 64.4782 189.1 64.4782ZM198.604 64.1932V56.2132H195.241V53.9332H204.551V56.2132H201.188V64.1932H198.604ZM210.789 64.4782C209.756 64.4782 208.851 64.2471 208.072 63.7847C207.293 63.3224 206.685 62.6859 206.248 61.8752C205.817 61.0582 205.602 60.1209 205.602 59.0632C205.602 57.9929 205.823 57.0524 206.267 56.2417C206.71 55.4247 207.321 54.7882 208.1 54.3322C208.879 53.8762 209.775 53.6482 210.789 53.6482C211.821 53.6482 212.727 53.8794 213.506 54.3417C214.291 54.8041 214.902 55.4437 215.339 56.2607C215.776 57.0714 215.995 58.0056 215.995 59.0632C215.995 60.1272 215.773 61.0677 215.33 61.8847C214.893 62.6954 214.281 63.3319 213.496 63.7942C212.717 64.2502 211.815 64.4782 210.789 64.4782ZM210.789 62.0652C211.618 62.0652 212.236 61.7866 212.641 61.2292C213.053 60.6656 213.259 59.9436 213.259 59.0632C213.259 58.1512 213.05 57.4229 212.632 56.8782C212.22 56.3336 211.606 56.0612 210.789 56.0612C210.225 56.0612 209.763 56.1879 209.402 56.4412C209.041 56.6946 208.771 57.0461 208.594 57.4957C208.423 57.9454 208.338 58.4679 208.338 59.0632C208.338 59.9816 208.543 60.7131 208.955 61.2577C209.373 61.7961 209.984 62.0652 210.789 62.0652ZM226.21 64.4972C225.222 64.4846 224.386 64.2661 223.702 63.8417C223.018 63.4111 222.48 62.8189 222.087 62.0652C221.701 61.3052 221.46 60.4249 221.365 59.4242C221.314 58.8859 221.302 58.2811 221.327 57.6097C221.359 56.9321 221.431 56.2671 221.545 55.6147C221.659 54.9624 221.821 54.4019 222.03 53.9332C222.233 53.4962 222.492 53.0972 222.809 52.7362C223.132 52.3689 223.474 52.0586 223.835 51.8052C224.259 51.5076 224.715 51.2796 225.203 51.1212C225.691 50.9566 226.204 50.8299 226.742 50.7412C227.28 50.6526 227.838 50.5734 228.414 50.5037C228.997 50.4341 229.586 50.3422 230.181 50.2282L230.409 52.5082C230.048 52.6032 229.636 52.6729 229.174 52.7172C228.712 52.7616 228.237 52.8091 227.749 52.8597C227.261 52.9041 226.796 52.9769 226.352 53.0782C225.909 53.1796 225.526 53.3316 225.203 53.5342C224.766 53.8066 224.43 54.1866 224.196 54.6742C223.968 55.1556 223.835 55.6432 223.797 56.1372C224.19 55.5672 224.668 55.1746 225.231 54.9592C225.801 54.7439 226.362 54.6362 226.913 54.6362C227.819 54.6362 228.594 54.8547 229.24 55.2917C229.893 55.7224 230.393 56.3051 230.741 57.0397C231.09 57.7681 231.264 58.5756 231.264 59.4622C231.264 60.4692 231.045 61.3527 230.608 62.1127C230.178 62.8727 229.582 63.4649 228.822 63.8892C228.062 64.3072 227.192 64.5099 226.21 64.4972ZM226.324 62.0842C227.059 62.0842 227.613 61.8562 227.986 61.4002C228.36 60.9442 228.547 60.3362 228.547 59.5762C228.547 58.7972 228.354 58.1861 227.967 57.7427C227.587 57.2931 227.04 57.0682 226.324 57.0682C225.596 57.0682 225.041 57.2931 224.661 57.7427C224.288 58.1861 224.101 58.7972 224.101 59.5762C224.101 60.3806 224.294 61.0012 224.68 61.4382C225.067 61.8689 225.615 62.0842 226.324 62.0842ZM234.294 68.7532L236.27 63.3192L236.308 64.9152L231.843 53.9332H234.522L237.524 61.7042H236.916L239.899 53.9332H242.483L236.688 68.7532H234.294ZM242.688 66.4732V62.1982C243.233 62.1982 243.619 62.0082 243.847 61.6282C244.081 61.2482 244.265 60.5706 244.398 59.5952C244.474 59.0316 244.537 58.4394 244.588 57.8187C244.645 57.1981 244.692 56.5616 244.73 55.9092C244.768 55.2569 244.803 54.5982 244.835 53.9332H252.758V62.1982H253.803V66.4732H251.371V64.1932H245.12V66.4732H242.688ZM245.994 62.1982H250.174V55.9282H247.077C247.058 56.2766 247.036 56.6249 247.01 56.9732C246.991 57.3216 246.966 57.6667 246.934 58.0087C246.909 58.3507 246.884 58.6832 246.858 59.0062C246.833 59.3229 246.805 59.6269 246.773 59.9182C246.716 60.4756 246.637 60.9284 246.535 61.2767C246.434 61.6251 246.254 61.9322 245.994 62.1982ZM257.005 68.7532L258.981 63.3192L259.019 64.9152L254.554 53.9332H257.233L260.235 61.7042H259.627L262.61 53.9332H265.194L259.399 68.7532H257.005ZM277.341 66.4732V64.1932H266.511V53.9332H268.981V61.9132H271.565V53.9332H274.035V61.9132H276.619V53.9332H279.089V61.9132H279.925V66.4732H277.341ZM286.217 64.4782C285.166 64.4782 284.238 64.2534 283.433 63.8037C282.635 63.3477 282.008 62.7239 281.552 61.9322C281.103 61.1342 280.878 60.2222 280.878 59.1962C280.878 58.0752 281.1 57.0999 281.543 56.2702C281.986 55.4406 282.597 54.7977 283.376 54.3417C284.155 53.8794 285.052 53.6482 286.065 53.6482C287.142 53.6482 288.057 53.9016 288.81 54.4082C289.564 54.9149 290.121 55.6274 290.482 56.5457C290.843 57.4641 290.97 58.5439 290.862 59.7852H288.307V58.8352C288.307 57.7902 288.139 57.0397 287.803 56.5837C287.474 56.1214 286.933 55.8902 286.179 55.8902C285.299 55.8902 284.649 56.1594 284.231 56.6977C283.82 57.2297 283.614 58.0182 283.614 59.0632C283.614 60.0196 283.82 60.7606 284.231 61.2862C284.649 61.8056 285.261 62.0652 286.065 62.0652C286.572 62.0652 287.005 61.9544 287.366 61.7327C287.727 61.5111 288.003 61.1912 288.193 60.7732L290.777 61.5142C290.391 62.4516 289.779 63.1799 288.943 63.6992C288.114 64.2186 287.205 64.4782 286.217 64.4782ZM282.816 59.7852V57.8662H289.618V59.7852H282.816ZM297.776 64.4782C296.725 64.4782 295.797 64.2534 294.993 63.8037C294.195 63.3477 293.568 62.7239 293.112 61.9322C292.662 61.1342 292.437 60.2222 292.437 59.1962C292.437 58.0752 292.659 57.0999 293.102 56.2702C293.546 55.4406 294.157 54.7977 294.936 54.3417C295.715 53.8794 296.611 53.6482 297.624 53.6482C298.701 53.6482 299.616 53.9016 300.37 54.4082C301.124 54.9149 301.681 55.6274 302.042 56.5457C302.403 57.4641 302.53 58.5439 302.422 59.7852H299.866V58.8352C299.866 57.7902 299.699 57.0397 299.363 56.5837C299.034 56.1214 298.492 55.8902 297.738 55.8902C296.858 55.8902 296.209 56.1594 295.791 56.6977C295.379 57.2297 295.173 58.0182 295.173 59.0632C295.173 60.0196 295.379 60.7606 295.791 61.2862C296.209 61.8056 296.82 62.0652 297.624 62.0652C298.131 62.0652 298.565 61.9544 298.926 61.7327C299.287 61.5111 299.562 61.1912 299.752 60.7732L302.336 61.5142C301.95 62.4516 301.339 63.1799 300.503 63.6992C299.673 64.2186 298.764 64.4782 297.776 64.4782ZM294.375 59.7852V57.8662H301.177V59.7852H294.375ZM304.614 64.1932V61.6092H307.198V64.1932H304.614ZM26.2475 97.4732V92.7802C26.6592 92.7802 27.0075 92.6789 27.2925 92.4762C27.5838 92.2672 27.8213 91.9759 28.005 91.6022C28.1887 91.2222 28.3343 90.7789 28.442 90.2722C28.5497 89.7656 28.6288 89.2146 28.6795 88.6192C28.7428 87.8592 28.7998 87.1119 28.8505 86.3772C28.9012 85.6362 28.9518 84.8699 29.0025 84.0782C29.0532 83.2802 29.1102 82.4189 29.1735 81.4942L38.2555 81.5132V92.7802H39.3005V97.4732H36.7165V95.1932H28.8315V97.4732H26.2475ZM30.1045 92.7802H35.6715V83.9262L31.5295 83.9072C31.4852 84.5342 31.4472 85.1106 31.4155 85.6362C31.3902 86.1619 31.3585 86.6939 31.3205 87.2322C31.2825 87.7706 31.2318 88.3722 31.1685 89.0372C31.1052 89.7022 31.0418 90.2501 30.9785 90.6807C30.9152 91.1051 30.817 91.4756 30.684 91.7922C30.5573 92.1089 30.3642 92.4382 30.1045 92.7802ZM44.2374 95.4782C43.5027 95.4782 42.8789 95.3389 42.3659 95.0602C41.8592 94.7752 41.4729 94.3984 41.2069 93.9297C40.9472 93.4547 40.8174 92.9322 40.8174 92.3622C40.8174 91.8872 40.8902 91.4534 41.0359 91.0607C41.1815 90.6681 41.4159 90.3229 41.7389 90.0252C42.0682 89.7212 42.5084 89.4679 43.0594 89.2652C43.4394 89.1259 43.8922 89.0024 44.4179 88.8947C44.9435 88.7871 45.5389 88.6857 46.2039 88.5907C46.8689 88.4894 47.6004 88.3786 48.3984 88.2582L47.4674 88.7712C47.4674 88.1632 47.3217 87.7167 47.0304 87.4317C46.739 87.1467 46.2514 87.0042 45.5674 87.0042C45.1874 87.0042 44.7915 87.0961 44.3799 87.2797C43.9682 87.4634 43.68 87.7896 43.5154 88.2582L41.1784 87.5172C41.438 86.6686 41.9257 85.9782 42.6414 85.4462C43.357 84.9142 44.3324 84.6482 45.5674 84.6482C46.473 84.6482 47.2774 84.7876 47.9804 85.0662C48.6834 85.3449 49.2154 85.8262 49.5764 86.5102C49.779 86.8902 49.8994 87.2702 49.9374 87.6502C49.9754 88.0302 49.9944 88.4546 49.9944 88.9232V95.1932H47.7334V93.0842L48.0564 93.5212C47.556 94.2116 47.0145 94.7119 46.4319 95.0222C45.8555 95.3262 45.124 95.4782 44.2374 95.4782ZM44.7884 93.4452C45.2634 93.4452 45.6624 93.3629 45.9854 93.1982C46.3147 93.0272 46.5744 92.8341 46.7644 92.6187C46.9607 92.4034 47.0937 92.2229 47.1634 92.0772C47.2964 91.7986 47.3724 91.4756 47.3914 91.1082C47.4167 90.7346 47.4294 90.4242 47.4294 90.1772L48.1894 90.3672C47.423 90.4939 46.8024 90.6016 46.3274 90.6902C45.8524 90.7726 45.4692 90.8486 45.1779 90.9182C44.8865 90.9879 44.63 91.0639 44.4084 91.1462C44.155 91.2476 43.9492 91.3584 43.7909 91.4787C43.6389 91.5927 43.5249 91.7194 43.4489 91.8587C43.3792 91.9981 43.3444 92.1532 43.3444 92.3242C43.3444 92.5586 43.4014 92.7612 43.5154 92.9322C43.6357 93.0969 43.8035 93.2236 44.0189 93.3122C44.2342 93.4009 44.4907 93.4452 44.7884 93.4452ZM52.4455 95.1932V84.9332H57.2525C57.6325 84.9332 57.965 84.9554 58.25 84.9997C58.535 85.0377 58.7725 85.0852 58.9625 85.1422C59.4312 85.2816 59.8587 85.5539 60.245 85.9592C60.6314 86.3646 60.8245 86.9536 60.8245 87.7262C60.8245 88.1822 60.7517 88.5527 60.606 88.8377C60.4604 89.1164 60.2672 89.3476 60.0265 89.5312C59.9125 89.6136 59.7985 89.6832 59.6845 89.7402C59.5705 89.7972 59.4565 89.8416 59.3425 89.8732C59.6085 89.9112 59.8492 89.9809 60.0645 90.0822C60.4065 90.2342 60.7042 90.4749 60.9575 90.8042C61.2109 91.1272 61.3375 91.6086 61.3375 92.2482C61.3375 92.9322 61.1697 93.5149 60.834 93.9962C60.5047 94.4776 60.0075 94.8132 59.3425 95.0032C59.1145 95.0666 58.8454 95.1141 58.535 95.1457C58.231 95.1774 57.9112 95.1932 57.5755 95.1932H52.4455ZM55.0675 93.2362H57.3855C57.5185 93.2362 57.6547 93.2236 57.794 93.1982C57.9397 93.1666 58.0695 93.1286 58.1835 93.0842C58.3672 93.0082 58.497 92.8784 58.573 92.6947C58.6554 92.5111 58.6965 92.3242 58.6965 92.1342C58.6965 91.8682 58.6364 91.6592 58.516 91.5072C58.402 91.3552 58.2722 91.2476 58.1265 91.1842C58.0062 91.1272 57.8732 91.0956 57.7275 91.0892C57.5882 91.0766 57.4742 91.0702 57.3855 91.0702H55.0675V93.2362ZM55.0675 89.0752H56.6445C56.8472 89.0752 57.0372 89.0657 57.2145 89.0467C57.3982 89.0214 57.5502 88.9802 57.6705 88.9232C57.8352 88.8472 57.9587 88.7269 58.041 88.5622C58.1234 88.3912 58.1645 88.2012 58.1645 87.9922C58.1645 87.7706 58.117 87.5711 58.022 87.3937C57.9334 87.2101 57.7845 87.0866 57.5755 87.0232C57.4362 86.9726 57.2589 86.9441 57.0435 86.9377C56.8345 86.9314 56.7015 86.9282 56.6445 86.9282H55.0675V89.0752ZM66.0948 95.4782C65.3601 95.4782 64.7363 95.3389 64.2233 95.0602C63.7166 94.7752 63.3303 94.3984 63.0643 93.9297C62.8046 93.4547 62.6748 92.9322 62.6748 92.3622C62.6748 91.8872 62.7476 91.4534 62.8933 91.0607C63.039 90.6681 63.2733 90.3229 63.5963 90.0252C63.9256 89.7212 64.3658 89.4679 64.9168 89.2652C65.2968 89.1259 65.7496 89.0024 66.2753 88.8947C66.801 88.7871 67.3963 88.6857 68.0613 88.5907C68.7263 88.4894 69.4578 88.3786 70.2558 88.2582L69.3248 88.7712C69.3248 88.1632 69.1791 87.7167 68.8878 87.4317C68.5965 87.1467 68.1088 87.0042 67.4248 87.0042C67.0448 87.0042 66.649 87.0961 66.2373 87.2797C65.8256 87.4634 65.5375 87.7896 65.3728 88.2582L63.0358 87.5172C63.2955 86.6686 63.7831 85.9782 64.4988 85.4462C65.2145 84.9142 66.1898 84.6482 67.4248 84.6482C68.3305 84.6482 69.1348 84.7876 69.8378 85.0662C70.5408 85.3449 71.0728 85.8262 71.4338 86.5102C71.6365 86.8902 71.7568 87.2702 71.7948 87.6502C71.8328 88.0302 71.8518 88.4546 71.8518 88.9232V95.1932H69.5908V93.0842L69.9138 93.5212C69.4135 94.2116 68.872 94.7119 68.2893 95.0222C67.713 95.3262 66.9815 95.4782 66.0948 95.4782ZM66.6458 93.4452C67.1208 93.4452 67.5198 93.3629 67.8428 93.1982C68.1721 93.0272 68.4318 92.8341 68.6218 92.6187C68.8181 92.4034 68.9511 92.2229 69.0208 92.0772C69.1538 91.7986 69.2298 91.4756 69.2488 91.1082C69.2741 90.7346 69.2868 90.4242 69.2868 90.1772L70.0468 90.3672C69.2805 90.4939 68.6598 90.6016 68.1848 90.6902C67.7098 90.7726 67.3266 90.8486 67.0353 90.9182C66.744 90.9879 66.4875 91.0639 66.2658 91.1462C66.0125 91.2476 65.8066 91.3584 65.6483 91.4787C65.4963 91.5927 65.3823 91.7194 65.3063 91.8587C65.2366 91.9981 65.2018 92.1532 65.2018 92.3242C65.2018 92.5586 65.2588 92.7612 65.3728 92.9322C65.4931 93.0969 65.661 93.2236 65.8763 93.3122C66.0916 93.4009 66.3481 93.4452 66.6458 93.4452ZM79.2239 83.7932C78.6666 83.7932 78.1599 83.6571 77.7039 83.3847C77.2479 83.1124 76.8838 82.7482 76.6114 82.2922C76.3391 81.8362 76.2029 81.3296 76.2029 80.7722H78.1979C78.1979 81.0572 78.2961 81.3011 78.4924 81.5037C78.6951 81.7001 78.9389 81.7982 79.2239 81.7982C79.5089 81.7982 79.7496 81.7001 79.9459 81.5037C80.1486 81.3011 80.2499 81.0572 80.2499 80.7722H82.2449C82.2449 81.3296 82.1088 81.8362 81.8364 82.2922C81.5641 82.7482 81.1999 83.1124 80.7439 83.3847C80.2879 83.6571 79.7813 83.7932 79.2239 83.7932ZM83.4609 84.9332V95.1932H80.9909V88.9232L76.3549 95.1932H74.3029V84.9332H76.7729V90.9942L81.4279 84.9332H83.4609ZM88.6307 95.1932V87.2132H85.2677V84.9332H94.5777V87.2132H91.2147V95.1932H88.6307ZM101.152 95.4782C100.101 95.4782 99.1733 95.2534 98.369 94.8037C97.571 94.3477 96.944 93.7239 96.488 92.9322C96.0383 92.1342 95.8135 91.2222 95.8135 90.1962C95.8135 89.0752 96.0351 88.0999 96.4785 87.2702C96.9218 86.4406 97.533 85.7977 98.312 85.3417C99.091 84.8794 99.9871 84.6482 101 84.6482C102.077 84.6482 102.992 84.9016 103.746 85.4082C104.5 85.9149 105.057 86.6274 105.418 87.5457C105.779 88.4641 105.906 89.5439 105.798 90.7852H103.242V89.8352C103.242 88.7902 103.075 88.0397 102.739 87.5837C102.41 87.1214 101.868 86.8902 101.114 86.8902C100.234 86.8902 99.585 87.1594 99.167 87.6977C98.7553 88.2297 98.5495 89.0182 98.5495 90.0632C98.5495 91.0196 98.7553 91.7606 99.167 92.2862C99.585 92.8056 100.196 93.0652 101 93.0652C101.507 93.0652 101.941 92.9544 102.302 92.7327C102.663 92.5111 102.938 92.1912 103.128 91.7732L105.712 92.5142C105.326 93.4516 104.715 94.1799 103.879 94.6992C103.049 95.2186 102.14 95.4782 101.152 95.4782ZM97.7515 90.7852V88.8662H104.553V90.7852H97.7515ZM116.782 95.4782C115.762 95.4782 114.91 95.2407 114.226 94.7657C113.542 94.2907 113.026 93.6447 112.678 92.8277C112.336 92.0107 112.165 91.0892 112.165 90.0632C112.165 89.0372 112.336 88.1157 112.678 87.2987C113.02 86.4817 113.523 85.8357 114.188 85.3607C114.853 84.8857 115.673 84.6482 116.649 84.6482C117.63 84.6482 118.485 84.8826 119.214 85.3512C119.942 85.8199 120.506 86.4627 120.905 87.2797C121.31 88.0904 121.513 89.0182 121.513 90.0632C121.513 91.0892 121.313 92.0107 120.914 92.8277C120.522 93.6447 119.971 94.2907 119.261 94.7657C118.552 95.2407 117.725 95.4782 116.782 95.4782ZM111.728 99.7532V84.9332H114.008V91.9632H114.331V99.7532H111.728ZM116.364 93.1792C116.921 93.1792 117.377 93.0399 117.732 92.7612C118.086 92.4826 118.349 92.1089 118.52 91.6402C118.691 91.1652 118.777 90.6396 118.777 90.0632C118.777 89.4932 118.688 88.9739 118.511 88.5052C118.333 88.0302 118.058 87.6534 117.684 87.3747C117.317 87.0897 116.845 86.9472 116.269 86.9472C115.73 86.9472 115.293 87.0771 114.958 87.3367C114.628 87.5964 114.388 87.9606 114.236 88.4292C114.084 88.8979 114.008 89.4426 114.008 90.0632C114.008 90.6839 114.084 91.2286 114.236 91.6972C114.388 92.1659 114.635 92.5301 114.977 92.7897C115.325 93.0494 115.787 93.1792 116.364 93.1792ZM126.453 95.4782C125.719 95.4782 125.095 95.3389 124.582 95.0602C124.075 94.7752 123.689 94.3984 123.423 93.9297C123.163 93.4547 123.033 92.9322 123.033 92.3622C123.033 91.8872 123.106 91.4534 123.252 91.0607C123.397 90.6681 123.632 90.3229 123.955 90.0252C124.284 89.7212 124.724 89.4679 125.275 89.2652C125.655 89.1259 126.108 89.0024 126.634 88.8947C127.159 88.7871 127.755 88.6857 128.42 88.5907C129.085 88.4894 129.816 88.3786 130.614 88.2582L129.683 88.7712C129.683 88.1632 129.538 87.7167 129.246 87.4317C128.955 87.1467 128.467 87.0042 127.783 87.0042C127.403 87.0042 127.007 87.0961 126.596 87.2797C126.184 87.4634 125.896 87.7896 125.731 88.2582L123.394 87.5172C123.654 86.6686 124.142 85.9782 124.857 85.4462C125.573 84.9142 126.548 84.6482 127.783 84.6482C128.689 84.6482 129.493 84.7876 130.196 85.0662C130.899 85.3449 131.431 85.8262 131.792 86.5102C131.995 86.8902 132.115 87.2702 132.153 87.6502C132.191 88.0302 132.21 88.4546 132.21 88.9232V95.1932H129.949V93.0842L130.272 93.5212C129.772 94.2116 129.23 94.7119 128.648 95.0222C128.071 95.3262 127.34 95.4782 126.453 95.4782ZM127.004 93.4452C127.479 93.4452 127.878 93.3629 128.201 93.1982C128.531 93.0272 128.79 92.8341 128.98 92.6187C129.177 92.4034 129.31 92.2229 129.379 92.0772C129.512 91.7986 129.588 91.4756 129.607 91.1082C129.633 90.7346 129.645 90.4242 129.645 90.1772L130.405 90.3672C129.639 90.4939 129.018 90.6016 128.543 90.6902C128.068 90.7726 127.685 90.8486 127.394 90.9182C127.102 90.9879 126.846 91.0639 126.624 91.1462C126.371 91.2476 126.165 91.3584 126.007 91.4787C125.855 91.5927 125.741 91.7194 125.665 91.8587C125.595 91.9981 125.56 92.1532 125.56 92.3242C125.56 92.5586 125.617 92.7612 125.731 92.9322C125.852 93.0969 126.019 93.2236 126.235 93.3122C126.45 93.4009 126.707 93.4452 127.004 93.4452ZM138.309 95.4782C137.353 95.4782 136.466 95.2819 135.649 94.8892C134.839 94.4902 134.199 93.9456 133.73 93.2552L135.763 91.8872C136.124 92.2546 136.511 92.5427 136.922 92.7517C137.34 92.9607 137.796 93.0652 138.29 93.0652C138.803 93.0652 139.202 92.9544 139.487 92.7327C139.779 92.5111 139.924 92.2166 139.924 91.8492C139.924 91.4946 139.807 91.2539 139.573 91.1272C139.345 91.0006 139.054 90.9341 138.699 90.9277C138.351 90.9214 137.999 90.9182 137.644 90.9182H137.036V88.9042H137.644C138.176 88.9042 138.629 88.8599 139.003 88.7712C139.377 88.6762 139.563 88.4166 139.563 87.9922C139.563 87.6376 139.434 87.3906 139.174 87.2512C138.914 87.1119 138.613 87.0422 138.271 87.0422C137.815 87.0422 137.356 87.1404 136.894 87.3367C136.432 87.5331 136.01 87.7642 135.63 88.0302L134.205 86.2632C134.788 85.7756 135.434 85.3861 136.143 85.0947C136.859 84.7971 137.606 84.6482 138.385 84.6482C139.044 84.6482 139.665 84.7622 140.247 84.9902C140.836 85.2182 141.311 85.5634 141.672 86.0257C142.04 86.4817 142.223 87.0549 142.223 87.7452C142.223 88.1886 142.135 88.6224 141.957 89.0467C141.78 89.4711 141.476 89.8922 141.045 90.3102L141.026 89.4932C141.343 89.6579 141.615 89.8701 141.843 90.1297C142.078 90.3831 142.255 90.6776 142.375 91.0132C142.502 91.3489 142.565 91.7162 142.565 92.1152C142.565 92.8499 142.369 93.4674 141.976 93.9677C141.584 94.4681 141.064 94.8449 140.418 95.0982C139.772 95.3516 139.069 95.4782 138.309 95.4782ZM148.985 95.4972C147.997 95.4846 147.161 95.2661 146.477 94.8417C145.793 94.4111 145.255 93.8189 144.862 93.0652C144.476 92.3052 144.235 91.4249 144.14 90.4242C144.09 89.8859 144.077 89.2811 144.102 88.6097C144.134 87.9321 144.207 87.2671 144.321 86.6147C144.435 85.9624 144.596 85.4019 144.805 84.9332C145.008 84.4962 145.268 84.0972 145.584 83.7362C145.907 83.3689 146.249 83.0586 146.61 82.8052C147.035 82.5076 147.491 82.2796 147.978 82.1212C148.466 81.9566 148.979 81.8299 149.517 81.7412C150.056 81.6526 150.613 81.5734 151.189 81.5037C151.772 81.4341 152.361 81.3422 152.956 81.2282L153.184 83.5082C152.823 83.6032 152.412 83.6729 151.949 83.7172C151.487 83.7616 151.012 83.8091 150.524 83.8597C150.037 83.9041 149.571 83.9769 149.128 84.0782C148.684 84.1796 148.301 84.3316 147.978 84.5342C147.541 84.8066 147.206 85.1866 146.971 85.6742C146.743 86.1556 146.61 86.6432 146.572 87.1372C146.965 86.5672 147.443 86.1746 148.007 85.9592C148.577 85.7439 149.137 85.6362 149.688 85.6362C150.594 85.6362 151.37 85.8547 152.016 86.2917C152.668 86.7224 153.168 87.3051 153.517 88.0397C153.865 88.7681 154.039 89.5756 154.039 90.4622C154.039 91.4692 153.821 92.3527 153.384 93.1127C152.953 93.8727 152.358 94.4649 151.598 94.8892C150.838 95.3072 149.967 95.5099 148.985 95.4972ZM149.099 93.0842C149.834 93.0842 150.388 92.8562 150.762 92.4002C151.135 91.9442 151.322 91.3362 151.322 90.5762C151.322 89.7972 151.129 89.1861 150.743 88.7427C150.363 88.2931 149.815 88.0682 149.099 88.0682C148.371 88.0682 147.817 88.2931 147.437 88.7427C147.063 89.1861 146.876 89.7972 146.876 90.5762C146.876 91.3806 147.069 92.0012 147.456 92.4382C147.842 92.8689 148.39 93.0842 149.099 93.0842ZM160.899 95.4782C159.847 95.4782 158.919 95.2534 158.115 94.8037C157.317 94.3477 156.69 93.7239 156.234 92.9322C155.784 92.1342 155.56 91.2222 155.56 90.1962C155.56 89.0752 155.781 88.0999 156.225 87.2702C156.668 86.4406 157.279 85.7977 158.058 85.3417C158.837 84.8794 159.733 84.6482 160.747 84.6482C161.823 84.6482 162.738 84.9016 163.492 85.4082C164.246 85.9149 164.803 86.6274 165.164 87.5457C165.525 88.4641 165.652 89.5439 165.544 90.7852H162.989V89.8352C162.989 88.7902 162.821 88.0397 162.485 87.5837C162.156 87.1214 161.614 86.8902 160.861 86.8902C159.98 86.8902 159.331 87.1594 158.913 87.6977C158.501 88.2297 158.296 89.0182 158.296 90.0632C158.296 91.0196 158.501 91.7606 158.913 92.2862C159.331 92.8056 159.942 93.0652 160.747 93.0652C161.253 93.0652 161.687 92.9544 162.048 92.7327C162.409 92.5111 162.685 92.1912 162.875 91.7732L165.459 92.5142C165.072 93.4516 164.461 94.1799 163.625 94.6992C162.795 95.2186 161.887 95.4782 160.899 95.4782ZM157.498 90.7852V88.8662H164.3V90.7852H157.498ZM172.724 95.4782C171.704 95.4782 170.853 95.2407 170.169 94.7657C169.485 94.2907 168.968 93.6447 168.62 92.8277C168.278 92.0107 168.107 91.0892 168.107 90.0632C168.107 89.0372 168.278 88.1157 168.62 87.2987C168.962 86.4817 169.466 85.8357 170.131 85.3607C170.796 84.8857 171.616 84.6482 172.591 84.6482C173.573 84.6482 174.428 84.8826 175.156 85.3512C175.884 85.8199 176.448 86.4627 176.847 87.2797C177.252 88.0904 177.455 89.0182 177.455 90.0632C177.455 91.0892 177.256 92.0107 176.857 92.8277C176.464 93.6447 175.913 94.2907 175.204 94.7657C174.494 95.2407 173.668 95.4782 172.724 95.4782ZM167.67 99.7532V84.9332H169.95V91.9632H170.273V99.7532H167.67ZM172.306 93.1792C172.863 93.1792 173.319 93.0399 173.674 92.7612C174.029 92.4826 174.292 92.1089 174.463 91.6402C174.634 91.1652 174.719 90.6396 174.719 90.0632C174.719 89.4932 174.63 88.9739 174.453 88.5052C174.276 88.0302 174 87.6534 173.627 87.3747C173.259 87.0897 172.787 86.9472 172.211 86.9472C171.673 86.9472 171.236 87.0771 170.9 87.3367C170.571 87.5964 170.33 87.9606 170.178 88.4292C170.026 88.8979 169.95 89.4426 169.95 90.0632C169.95 90.6839 170.026 91.2286 170.178 91.6972C170.33 92.1659 170.577 92.5301 170.919 92.7897C171.267 93.0494 171.73 93.1792 172.306 93.1792ZM184.315 95.4782C183.263 95.4782 182.335 95.2534 181.531 94.8037C180.733 94.3477 180.106 93.7239 179.65 92.9322C179.2 92.1342 178.976 91.2222 178.976 90.1962C178.976 89.0752 179.197 88.0999 179.641 87.2702C180.084 86.4406 180.695 85.7977 181.474 85.3417C182.253 84.8794 183.149 84.6482 184.163 84.6482C185.239 84.6482 186.154 84.9016 186.908 85.4082C187.662 85.9149 188.219 86.6274 188.58 87.5457C188.941 88.4641 189.068 89.5439 188.96 90.7852H186.405V89.8352C186.405 88.7902 186.237 88.0397 185.901 87.5837C185.572 87.1214 185.03 86.8902 184.277 86.8902C183.396 86.8902 182.747 87.1594 182.329 87.6977C181.917 88.2297 181.712 89.0182 181.712 90.0632C181.712 91.0196 181.917 91.7606 182.329 92.2862C182.747 92.8056 183.358 93.0652 184.163 93.0652C184.669 93.0652 185.103 92.9544 185.464 92.7327C185.825 92.5111 186.101 92.1912 186.291 91.7732L188.875 92.5142C188.488 93.4516 187.877 94.1799 187.041 94.6992C186.211 95.2186 185.303 95.4782 184.315 95.4782ZM180.914 90.7852V88.8662H187.716V90.7852H180.914ZM190.808 95.1932V84.9332H192.898L196.47 91.5832L200.042 84.9332H202.132V95.1932H199.662V90.0822L196.926 95.1932H196.014L193.278 90.0822V95.1932H190.808ZM209.321 95.4782C208.257 95.4782 207.345 95.2407 206.585 94.7657C205.825 94.2907 205.242 93.6447 204.837 92.8277C204.431 92.0107 204.229 91.0892 204.229 90.0632C204.229 89.0246 204.438 88.0967 204.856 87.2797C205.28 86.4627 205.875 85.8199 206.642 85.3512C207.408 84.8826 208.314 84.6482 209.359 84.6482C210.568 84.6482 211.582 84.9554 212.399 85.5697C213.222 86.1777 213.748 87.0106 213.976 88.0682L211.392 88.7522C211.24 88.2202 210.974 87.8054 210.594 87.5077C210.22 87.2101 209.796 87.0612 209.321 87.0612C208.776 87.0612 208.329 87.1942 207.981 87.4602C207.633 87.7199 207.376 88.0777 207.212 88.5337C207.047 88.9834 206.965 89.4932 206.965 90.0632C206.965 90.9562 207.161 91.6814 207.554 92.2387C207.953 92.7897 208.542 93.0652 209.321 93.0652C209.903 93.0652 210.347 92.9322 210.651 92.6662C210.955 92.4002 211.183 92.0202 211.335 91.5262L213.976 92.0772C213.684 93.1666 213.133 94.0057 212.323 94.5947C211.512 95.1837 210.511 95.4782 209.321 95.4782ZM221.732 95.1932V91.9252H220.079C219.864 91.9252 219.569 91.9221 219.196 91.9157C218.828 91.9031 218.483 91.8682 218.16 91.8112C217.343 91.6656 216.672 91.3109 216.146 90.7472C215.627 90.1836 215.367 89.4172 215.367 88.4482C215.367 87.5046 215.617 86.7446 216.118 86.1682C216.618 85.5919 217.286 85.2246 218.122 85.0662C218.464 84.9966 218.816 84.9586 219.177 84.9522C219.544 84.9396 219.845 84.9332 220.079 84.9332H224.316V95.1932H221.732ZM215.12 95.1932L217.438 91.3932H220.098L217.818 95.1932H215.12ZM219.794 89.9302H221.732V86.9282H219.794C219.68 86.9282 219.553 86.9346 219.414 86.9472C219.281 86.9599 219.142 86.9852 218.996 87.0232C218.819 87.0739 218.654 87.1689 218.502 87.3082C218.35 87.4412 218.227 87.6059 218.132 87.8022C218.037 87.9922 217.989 88.2012 217.989 88.4292C217.989 88.7902 218.097 89.0974 218.312 89.3507C218.527 89.5977 218.768 89.7592 219.034 89.8352C219.167 89.8732 219.3 89.8986 219.433 89.9112C219.572 89.9239 219.693 89.9302 219.794 89.9302ZM226.781 97.7582L226.933 96.6752C227.237 96.7006 227.484 96.6499 227.674 96.5232C227.864 96.4029 227.994 96.2256 228.064 95.9912C228.14 95.7632 228.156 95.4972 228.111 95.1932H226.781V92.6092H229.365V95.1932C229.365 96.1052 229.153 96.7956 228.729 97.2642C228.305 97.7329 227.655 97.8976 226.781 97.7582ZM236.768 95.1932L236.787 84.9332H239.409V89.8732L242.886 84.9332H246.078L242.373 90.0632L246.325 95.1932H242.962L239.409 90.2532V95.1932H236.768ZM250.12 95.4782C249.386 95.4782 248.762 95.3389 248.249 95.0602C247.742 94.7752 247.356 94.3984 247.09 93.9297C246.83 93.4547 246.7 92.9322 246.7 92.3622C246.7 91.8872 246.773 91.4534 246.919 91.0607C247.064 90.6681 247.299 90.3229 247.622 90.0252C247.951 89.7212 248.391 89.4679 248.942 89.2652C249.322 89.1259 249.775 89.0024 250.301 88.8947C250.826 88.7871 251.422 88.6857 252.087 88.5907C252.752 88.4894 253.483 88.3786 254.281 88.2582L253.35 88.7712C253.35 88.1632 253.205 87.7167 252.913 87.4317C252.622 87.1467 252.134 87.0042 251.45 87.0042C251.07 87.0042 250.674 87.0961 250.263 87.2797C249.851 87.4634 249.563 87.7896 249.398 88.2582L247.061 87.5172C247.321 86.6686 247.809 85.9782 248.524 85.4462C249.24 84.9142 250.215 84.6482 251.45 84.6482C252.356 84.6482 253.16 84.7876 253.863 85.0662C254.566 85.3449 255.098 85.8262 255.459 86.5102C255.662 86.8902 255.782 87.2702 255.82 87.6502C255.858 88.0302 255.877 88.4546 255.877 88.9232V95.1932H253.616V93.0842L253.939 93.5212C253.439 94.2116 252.897 94.7119 252.315 95.0222C251.738 95.3262 251.007 95.4782 250.12 95.4782ZM250.671 93.4452C251.146 93.4452 251.545 93.3629 251.868 93.1982C252.198 93.0272 252.457 92.8341 252.647 92.6187C252.844 92.4034 252.977 92.2229 253.046 92.0772C253.179 91.7986 253.255 91.4756 253.274 91.1082C253.3 90.7346 253.312 90.4242 253.312 90.1772L254.072 90.3672C253.306 90.4939 252.685 90.6016 252.21 90.6902C251.735 90.7726 251.352 90.8486 251.061 90.9182C250.769 90.9879 250.513 91.0639 250.291 91.1462C250.038 91.2476 249.832 91.3584 249.674 91.4787C249.522 91.5927 249.408 91.7194 249.332 91.8587C249.262 91.9981 249.227 92.1532 249.227 92.3242C249.227 92.5586 249.284 92.7612 249.398 92.9322C249.519 93.0969 249.686 93.2236 249.902 93.3122C250.117 93.4009 250.374 93.4452 250.671 93.4452ZM258.328 95.1932L258.347 84.9332H260.969V89.8732L264.446 84.9332H267.638L263.933 90.0632L267.885 95.1932H264.522L260.969 90.2532V95.1932H258.328ZM30.9215 125.478C29.7372 125.478 28.7397 125.184 27.929 124.595C27.1183 124.006 26.5642 123.167 26.2665 122.077L28.9075 121.526C29.0595 122.02 29.2875 122.4 29.5915 122.666C29.9018 122.932 30.3452 123.065 30.9215 123.065C31.5485 123.065 32.052 122.885 32.432 122.524C32.812 122.156 33.0622 121.666 33.1825 121.051H30.1615V119.056H33.1825C33.0685 118.493 32.831 118.021 32.47 117.641C32.109 117.254 31.6182 117.061 30.9975 117.061C30.4845 117.061 30.038 117.207 29.658 117.498C29.2843 117.783 29.0152 118.201 28.8505 118.752L26.2665 118.068C26.4945 117.011 27.0202 116.178 27.8435 115.57C28.6668 114.955 29.6802 114.648 30.8835 114.648C31.9285 114.648 32.8342 114.883 33.6005 115.351C34.3732 115.82 34.9685 116.466 35.3865 117.289C35.8045 118.106 36.0135 119.037 36.0135 120.082C36.0135 121.102 35.8108 122.02 35.4055 122.837C35.0002 123.648 34.4175 124.291 33.6575 124.766C32.8975 125.241 31.9855 125.478 30.9215 125.478ZM40.4256 125.193V117.213H37.0626V114.933H46.3726V117.213H43.0096V125.193H40.4256ZM52.6098 125.478C51.5775 125.478 50.6718 125.247 49.8928 124.785C49.1138 124.322 48.5058 123.686 48.0688 122.875C47.6382 122.058 47.4228 121.121 47.4228 120.063C47.4228 118.993 47.6445 118.052 48.0878 117.242C48.5312 116.425 49.1423 115.788 49.9213 115.332C50.7003 114.876 51.5965 114.648 52.6098 114.648C53.6422 114.648 54.5478 114.879 55.3268 115.342C56.1122 115.804 56.7233 116.444 57.1603 117.261C57.5973 118.071 57.8158 119.006 57.8158 120.063C57.8158 121.127 57.5942 122.068 57.1508 122.885C56.7138 123.695 56.1027 124.332 55.3173 124.794C54.5383 125.25 53.6358 125.478 52.6098 125.478ZM52.6098 123.065C53.4395 123.065 54.057 122.787 54.4623 122.229C54.874 121.666 55.0798 120.944 55.0798 120.063C55.0798 119.151 54.8708 118.423 54.4528 117.878C54.0412 117.334 53.4268 117.061 52.6098 117.061C52.0462 117.061 51.5838 117.188 51.2228 117.441C50.8618 117.695 50.5927 118.046 50.4153 118.496C50.2443 118.945 50.1588 119.468 50.1588 120.063C50.1588 120.982 50.3647 121.713 50.7763 122.258C51.1943 122.796 51.8055 123.065 52.6098 123.065ZM62.318 121.488C62.318 121.07 62.3655 120.652 62.4605 120.234C62.5618 119.816 62.7106 119.436 62.907 119.094C63.0653 118.771 63.2363 118.518 63.42 118.334C63.61 118.144 63.8253 117.951 64.066 117.755C64.313 117.558 64.6043 117.283 64.94 116.928C65.1996 116.643 65.3706 116.365 65.453 116.092C65.5416 115.814 65.586 115.51 65.586 115.18C65.586 115.009 65.567 114.845 65.529 114.686C65.4973 114.528 65.434 114.389 65.339 114.268C65.187 114.059 64.9843 113.91 64.731 113.822C64.484 113.727 64.218 113.679 63.933 113.679C63.7176 113.679 63.5055 113.705 63.2965 113.755C63.0938 113.806 62.9196 113.888 62.774 114.002C62.5966 114.135 62.4636 114.303 62.375 114.506C62.2926 114.708 62.2546 114.933 62.261 115.18H59.525C59.601 114.503 59.7941 113.882 60.1045 113.318C60.4148 112.755 60.817 112.311 61.311 111.988C61.672 111.748 62.071 111.564 62.508 111.437C62.945 111.311 63.382 111.247 63.819 111.247C64.541 111.247 65.2218 111.361 65.8615 111.589C66.5011 111.811 67.03 112.178 67.448 112.691C67.7266 113.014 67.942 113.391 68.094 113.822C68.246 114.246 68.322 114.674 68.322 115.104C68.322 115.795 68.1668 116.422 67.8565 116.985C67.5461 117.549 67.163 118.075 66.707 118.562C66.5106 118.771 66.3333 118.955 66.175 119.113C66.023 119.265 65.8836 119.411 65.757 119.55C65.6366 119.683 65.529 119.823 65.434 119.968C65.2566 120.26 65.149 120.497 65.111 120.681C65.073 120.864 65.054 121.134 65.054 121.488H62.318ZM62.337 125.193V122.457H65.054V125.193H62.337Z" fill="white"/>
</svg>
